<?xml version="1.0" encoding="utf-8"?>
<!-- Generator: Adobe Illustrator 18.0.0, SVG Export Plug-In . SVG Version: 6.00 Build 0)  -->
<!DOCTYPE svg PUBLIC "-//W3C//DTD SVG 1.1//EN" "http://www.w3.org/Graphics/SVG/1.1/DTD/svg11.dtd">
<svg version="1.1" id="圖層_1" xmlns="http://www.w3.org/2000/svg" xmlns:xlink="http://www.w3.org/1999/xlink" x="0px" y="0px"
	 viewBox="0 231.9 595.3 355.3" enable-background="new 0 231.9 595.3 355.3" xml:space="preserve">
<g>
	<rect x="81.7" y="436.9" fill="#03A9F4" width="17" height="115.4"/>
</g>
<g>
	<rect x="98.8" y="486.3" fill="#03A9F4" width="17" height="65.9"/>
</g>
<g>
	<rect x="115.8" y="403.9" fill="#03A9F4" width="17" height="148.3"/>
</g>
<g>
	<rect x="132.9" y="453.4" fill="#03A9F4" width="17" height="98.9"/>
</g>
<g>
	<rect x="149.9" y="469.9" fill="#03A9F4" width="17" height="82.4"/>
</g>
<g>
	<rect x="167" y="338" fill="#03A9F4" width="17" height="214.3"/>
</g>
<g>
	<rect x="184" y="420.4" fill="#03A9F4" width="17" height="131.8"/>
</g>
<g>
	<rect x="201.1" y="436.9" fill="#03A9F4" width="17" height="115.4"/>
</g>
<g>
	<rect x="218.1" y="371" fill="#03A9F4" width="17" height="181.3"/>
</g>
<g>
	<rect x="235.2" y="387.5" fill="#03A9F4" width="17" height="164.8"/>
</g>
<g>
	<rect x="252.2" y="387.5" fill="#03A9F4" width="17" height="164.8"/>
</g>
<g>
	<rect x="269.3" y="403.9" fill="#03A9F4" width="17" height="148.3"/>
</g>
<g>
	<rect x="286.3" y="387.5" fill="#03A9F4" width="17" height="164.8"/>
</g>
<g>
	<rect x="303.3" y="255.6" fill="#03A9F4" width="17" height="296.7"/>
</g>
<g>
	<rect x="320.4" y="387.5" fill="#03A9F4" width="17" height="164.8"/>
</g>
<g>
	<rect x="337.4" y="535.8" fill="#03A9F4" width="17" height="16.5"/>
</g>
<g>
	<rect x="354.5" y="453.4" fill="#03A9F4" width="17" height="98.9"/>
</g>
<g>
	<rect x="371.5" y="436.9" fill="#03A9F4" width="17" height="115.4"/>
</g>
<g>
	<rect x="388.6" y="453.4" fill="#03A9F4" width="17" height="98.9"/>
</g>
<g>
	<rect x="405.6" y="469.9" fill="#03A9F4" width="17" height="82.4"/>
</g>
<g>
	<rect x="422.7" y="453.4" fill="#03A9F4" width="17" height="98.9"/>
</g>
<g>
	<rect x="439.7" y="469.9" fill="#03A9F4" width="17" height="82.4"/>
</g>
<g>
	<rect x="456.8" y="535.8" fill="#03A9F4" width="17" height="16.5"/>
</g>
<g>
	<rect x="473.8" y="519.3" fill="#03A9F4" width="17" height="33"/>
</g>
<g>
	<rect x="490.9" y="502.8" fill="#03A9F4" width="17" height="49.4"/>
</g>
<g>
	<rect x="507.9" y="338" fill="#03A9F4" width="17" height="214.3"/>
</g>
<g>
	<rect x="525" y="338" fill="#03A9F4" width="17" height="214.3"/>
</g>
<g>
	<rect x="542" y="486.3" fill="#03A9F4" width="17" height="65.9"/>
</g>
<g>
	<g>
		<text transform="matrix(1 0 0 1 53.411 560.9645)" fill="#4D4D4D" font-family="'ArialMT'" font-size="24">0</text>
	</g>
</g>
<g>
	<g>
		<text transform="matrix(1 0 0 1 53.411 478.5543)" fill="#4D4D4D" font-family="'ArialMT'" font-size="24">5</text>
	</g>
</g>
<g>
	<g>
		<text transform="matrix(1 0 0 1 40.0633 396.1549)" fill="#4D4D4D" font-family="'ArialMT'" font-size="24">10</text>
	</g>
</g>
<g>
	<g>
		<text transform="matrix(1 0 0 1 40.0633 313.7442)" fill="#4D4D4D" font-family="'ArialMT'" font-size="24">15</text>
	</g>
</g>
<g>
	
		<line fill="none" stroke="#333333" stroke-width="1.07" stroke-linejoin="round" stroke-miterlimit="10" x1="70" y1="552.3" x2="558" y2="552.3"/>
</g>
<g>
	
		<line fill="none" stroke="#333333" stroke-width="1.07" stroke-linejoin="round" stroke-miterlimit="10" stroke-dasharray="5" x1="70" y1="469.9" x2="558" y2="469.9"/>
</g>
<g>
	
		<line fill="none" stroke="#333333" stroke-width="1.07" stroke-linejoin="round" stroke-miterlimit="10" stroke-dasharray="5" x1="70" y1="387.5" x2="558" y2="387.5"/>
</g>
<g>
	
		<line fill="none" stroke="#333333" stroke-width="1.07" stroke-linejoin="round" stroke-miterlimit="10" stroke-dasharray="5" x1="70" y1="305" x2="558" y2="305"/>
</g>
<g>
	<g>
		<text transform="matrix(1 0 0 1 65.4782 582.0179)" fill="#4D4D4D" font-family="'ArialMT'" font-size="24">2010</text>
	</g>
</g>
<g>
	<g>
		<text transform="matrix(1 0 0 1 200.1123 582.0179)" fill="#4D4D4D" font-family="'ArialMT'" font-size="24">2012</text>
	</g>
</g>
<g>
	<g>
		<text transform="matrix(1 0 0 1 344.9492 582.0179)" fill="#4D4D4D" font-family="'ArialMT'" font-size="24">2014</text>
	</g>
</g>
<g>
	<g>
		<text transform="matrix(1 0 0 1 489.5957 582.0179)" fill="#4D4D4D" font-family="'ArialMT'" font-size="24">2016</text>
	</g>
</g>
<text transform="matrix(1 0 0 1 21.5 261.9996)" font-family="'PingFangTC-Regular-B5pc-H'" font-size="24">海盜活動件數</text>
</svg>

