<?xml version="1.0" encoding="utf-8"?>
<!-- Generator: Adobe Illustrator 18.0.0, SVG Export Plug-In . SVG Version: 6.00 Build 0)  -->
<!DOCTYPE svg PUBLIC "-//W3C//DTD SVG 1.1//EN" "http://www.w3.org/Graphics/SVG/1.1/DTD/svg11.dtd">
<svg version="1.1" id="圖層_1" xmlns="http://www.w3.org/2000/svg" xmlns:xlink="http://www.w3.org/1999/xlink" x="0px" y="0px"
	 viewBox="0 249.9 595.3 335" enable-background="new 0 249.9 595.3 335" xml:space="preserve">
<g>
	<rect x="70.1" y="506.6" fill="#03A9F4" width="16.5" height="45.6"/>
</g>
<g>
	<rect x="86.6" y="495.2" fill="#03A9F4" width="16.5" height="57.1"/>
</g>
<g>
	<rect x="103" y="483.8" fill="#03A9F4" width="16.5" height="68.5"/>
</g>
<g>
	<rect x="119.5" y="518" fill="#03A9F4" width="16.5" height="34.2"/>
</g>
<g>
	<rect x="136" y="449.6" fill="#03A9F4" width="16.5" height="102.7"/>
</g>
<g>
	<rect x="152.5" y="495.2" fill="#03A9F4" width="16.5" height="57.1"/>
</g>
<g>
	<rect x="168.9" y="495.2" fill="#03A9F4" width="16.5" height="57.1"/>
</g>
<g>
	<rect x="185.4" y="483.8" fill="#03A9F4" width="16.5" height="68.5"/>
</g>
<g>
	<rect x="201.9" y="518" fill="#03A9F4" width="16.5" height="34.2"/>
</g>
<g>
	<rect x="218.4" y="483.8" fill="#03A9F4" width="16.5" height="68.5"/>
</g>
<g>
	<rect x="234.9" y="506.6" fill="#03A9F4" width="16.5" height="45.6"/>
</g>
<g>
	<rect x="251.3" y="472.4" fill="#03A9F4" width="16.5" height="79.9"/>
</g>
<g>
	<rect x="267.8" y="472.4" fill="#03A9F4" width="16.5" height="79.9"/>
</g>
<g>
	<rect x="284.3" y="529.4" fill="#03A9F4" width="16.5" height="22.8"/>
</g>
<g>
	<rect x="300.8" y="518" fill="#03A9F4" width="16.5" height="34.2"/>
</g>
<g>
	<rect x="317.3" y="426.8" fill="#03A9F4" width="16.5" height="125.5"/>
</g>
<g>
	<rect x="333.7" y="438.2" fill="#03A9F4" width="16.5" height="114.1"/>
</g>
<g>
	<rect x="350.2" y="426.8" fill="#03A9F4" width="16.5" height="125.5"/>
</g>
<g>
	<rect x="366.7" y="381.1" fill="#03A9F4" width="16.5" height="171.2"/>
</g>
<g>
	<rect x="383.2" y="255.6" fill="#03A9F4" width="16.5" height="296.7"/>
</g>
<g>
	<rect x="399.6" y="426.8" fill="#03A9F4" width="16.5" height="125.5"/>
</g>
<g>
	<rect x="416.1" y="267" fill="#03A9F4" width="16.5" height="285.3"/>
</g>
<g>
	<rect x="432.6" y="369.7" fill="#03A9F4" width="16.5" height="182.6"/>
</g>
<g>
	<rect x="449.1" y="278.4" fill="#03A9F4" width="16.5" height="273.8"/>
</g>
<g>
	<rect x="465.6" y="255.6" fill="#03A9F4" width="16.5" height="296.7"/>
</g>
<g>
	<rect x="482" y="358.3" fill="#03A9F4" width="16.5" height="194"/>
</g>
<g>
	<polygon fill="#03A9F4" points="498.5,552.3 515,552.3 515,552.3 	"/>
</g>
<g>
	<rect x="515" y="518" fill="#03A9F4" width="16.5" height="34.2"/>
</g>
<g>
	<rect x="531.5" y="518" fill="#03A9F4" width="16.5" height="34.2"/>
</g>
<g>
	<rect x="547.9" y="540.9" fill="#03A9F4" width="16.5" height="11.4"/>
</g>
<g>
	<g>
		<text transform="matrix(1 0 0 1 40.5802 560.9645)" fill="#4D4D4D" font-family="'ArialMT'" font-size="24">0</text>
	</g>
</g>
<g>
	<g>
		<text transform="matrix(1 0 0 1 27.2326 446.8659)" fill="#4D4D4D" font-family="'ArialMT'" font-size="24">10</text>
	</g>
</g>
<g>
	<g>
		<text transform="matrix(1 0 0 1 27.2326 332.7662)" fill="#4D4D4D" font-family="'ArialMT'" font-size="24">20</text>
	</g>
</g>
<g>
	
		<line fill="none" stroke="#333333" stroke-width="1.07" stroke-linejoin="round" stroke-miterlimit="10" x1="58.7" y1="552.3" x2="564.4" y2="552.3"/>
</g>
<g>
	<g>
		<g>
			<line fill="none" stroke="#333333" stroke-width="1.07" stroke-linejoin="round" x1="58.7" y1="438.2" x2="61.2" y2="438.2"/>
			
				<line fill="none" stroke="#333333" stroke-width="1.07" stroke-linejoin="round" stroke-dasharray="4.9581,4.9581" x1="66.1" y1="438.2" x2="559.5" y2="438.2"/>
			<line fill="none" stroke="#333333" stroke-width="1.07" stroke-linejoin="round" x1="561.9" y1="438.2" x2="564.4" y2="438.2"/>
		</g>
	</g>
</g>
<g>
	<g>
		<g>
			<line fill="none" stroke="#333333" stroke-width="1.07" stroke-linejoin="round" x1="58.7" y1="324.1" x2="61.2" y2="324.1"/>
			
				<line fill="none" stroke="#333333" stroke-width="1.07" stroke-linejoin="round" stroke-dasharray="4.9581,4.9581" x1="66.1" y1="324.1" x2="559.5" y2="324.1"/>
			<line fill="none" stroke="#333333" stroke-width="1.07" stroke-linejoin="round" x1="561.9" y1="324.1" x2="564.4" y2="324.1"/>
		</g>
	</g>
</g>
<g>
	<g>
		<text transform="matrix(1 0 0 1 54.873 581.0179)" fill="#4D4D4D" font-family="'ArialMT'" font-size="24">2010</text>
	</g>
</g>
<g>
	<g>
		<text transform="matrix(1 0 0 1 200.1685 581.0179)" fill="#4D4D4D" font-family="'ArialMT'" font-size="24">2012</text>
	</g>
</g>
<g>
	<g>
		<text transform="matrix(1 0 0 1 345.665 581.0179)" fill="#4D4D4D" font-family="'ArialMT'" font-size="24">2014</text>
	</g>
</g>
<g>
	<g>
		<text transform="matrix(1 0 0 1 490.9609 581.0179)" fill="#4D4D4D" font-family="'ArialMT'" font-size="24">2016</text>
	</g>
</g>
<text transform="matrix(1 0 0 1 12.2326 290.4868)" font-family="'PingFangTC-Regular-B5pc-H'" font-size="24">海盜活動件數</text>
</svg>

