<?xml version="1.0" encoding="utf-8"?>
<!-- Generator: Adobe Illustrator 18.0.0, SVG Export Plug-In . SVG Version: 6.00 Build 0)  -->
<!DOCTYPE svg PUBLIC "-//W3C//DTD SVG 1.1//EN" "http://www.w3.org/Graphics/SVG/1.1/DTD/svg11.dtd">
<svg version="1.1" id="圖層_1" xmlns="http://www.w3.org/2000/svg" xmlns:xlink="http://www.w3.org/1999/xlink" x="0px" y="0px"
	 viewBox="0 239.9 595.3 346" enable-background="new 0 239.9 595.3 346" xml:space="preserve">
<g>
	<rect x="81.7" y="430.1" fill="#03A9F4" width="17" height="122.2"/>
</g>
<g>
	<rect x="98.8" y="290.5" fill="#03A9F4" width="17" height="261.8"/>
</g>
<g>
	<rect x="115.8" y="534.8" fill="#03A9F4" width="17" height="17.5"/>
</g>
<g>
	<polygon fill="#03A9F4" points="132.9,552.3 149.9,552.3 149.9,552.3 	"/>
</g>
<g>
	<rect x="149.9" y="517.4" fill="#03A9F4" width="17" height="34.9"/>
</g>
<g>
	<rect x="167" y="255.6" fill="#03A9F4" width="17" height="296.7"/>
</g>
<g>
	<rect x="184" y="395.2" fill="#03A9F4" width="17" height="157.1"/>
</g>
<g>
	<rect x="201.1" y="482.5" fill="#03A9F4" width="17" height="69.8"/>
</g>
<g>
	<rect x="218.1" y="430.1" fill="#03A9F4" width="17" height="122.2"/>
</g>
<g>
	<rect x="235.2" y="447.6" fill="#03A9F4" width="17" height="104.7"/>
</g>
<g>
	<rect x="252.2" y="534.8" fill="#03A9F4" width="17" height="17.5"/>
</g>
<g>
	<polygon fill="#03A9F4" points="269.3,552.3 286.3,552.3 286.3,552.3 	"/>
</g>
<g>
	<polygon fill="#03A9F4" points="286.3,552.3 303.3,552.3 303.3,552.3 	"/>
</g>
<g>
	<rect x="303.3" y="534.8" fill="#03A9F4" width="17" height="17.5"/>
</g>
<g>
	<rect x="320.4" y="517.4" fill="#03A9F4" width="17" height="34.9"/>
</g>
<g>
	<polygon fill="#03A9F4" points="337.4,552.3 354.5,552.3 354.5,552.3 	"/>
</g>
<g>
	<rect x="354.5" y="534.8" fill="#03A9F4" width="17" height="17.5"/>
</g>
<g>
	<rect x="371.5" y="482.5" fill="#03A9F4" width="17" height="69.8"/>
</g>
<g>
	<rect x="388.6" y="534.8" fill="#03A9F4" width="17" height="17.5"/>
</g>
<g>
	<polygon fill="#03A9F4" points="405.6,552.3 422.7,552.3 422.7,552.3 	"/>
</g>
<g>
	<polygon fill="#03A9F4" points="422.7,552.3 439.7,552.3 439.7,552.3 	"/>
</g>
<g>
	<polygon fill="#03A9F4" points="439.7,552.3 456.8,552.3 456.8,552.3 	"/>
</g>
<g>
	<polygon fill="#03A9F4" points="456.8,552.3 473.8,552.3 473.8,552.3 	"/>
</g>
<g>
	<polygon fill="#03A9F4" points="473.8,552.3 490.9,552.3 490.9,552.3 	"/>
</g>
<g>
	<polygon fill="#03A9F4" points="490.9,552.3 507.9,552.3 507.9,552.3 	"/>
</g>
<g>
	<polygon fill="#03A9F4" points="507.9,552.3 525,552.3 525,552.3 	"/>
</g>
<g>
	<polygon fill="#03A9F4" points="525,552.3 542,552.3 542,552.3 	"/>
</g>
<g>
	<polygon fill="#03A9F4" points="542,552.3 559,552.3 559,552.3 	"/>
</g>
<g>
	<g>
		<text transform="matrix(1 0 0 1 55.5812 561.9645)" fill="#4D4D4D" font-family="'ArialMT'" font-size="24">0</text>
	</g>
</g>
<g>
	<g>
		<text transform="matrix(1 0 0 1 55.5812 474.7087)" fill="#4D4D4D" font-family="'ArialMT'" font-size="24">5</text>
	</g>
</g>
<g>
	<g>
		<text transform="matrix(1 0 0 1 42.2335 387.4538)" fill="#4D4D4D" font-family="'ArialMT'" font-size="24">10</text>
	</g>
</g>
<g>
	<g>
		<text transform="matrix(1 0 0 1 42.2335 300.2092)" fill="#4D4D4D" font-family="'ArialMT'" font-size="24">15</text>
	</g>
</g>
<g>
	
		<line fill="none" stroke="#333333" stroke-width="1.07" stroke-linejoin="round" stroke-miterlimit="10" x1="72.4" y1="552.3" x2="557" y2="552.3"/>
</g>
<g>
	<g>
		<g>
			<line fill="none" stroke="#333333" stroke-width="1.07" stroke-linejoin="round" x1="72.4" y1="465" x2="74.9" y2="465"/>
			
				<line fill="none" stroke="#333333" stroke-width="1.07" stroke-linejoin="round" stroke-dasharray="5.0487,5.0487" x1="79.9" y1="465" x2="552" y2="465"/>
			<line fill="none" stroke="#333333" stroke-width="1.07" stroke-linejoin="round" x1="554.5" y1="465" x2="557" y2="465"/>
		</g>
	</g>
</g>
<g>
	<g>
		<g>
			<line fill="none" stroke="#333333" stroke-width="1.07" stroke-linejoin="round" x1="72.4" y1="377.8" x2="74.9" y2="377.8"/>
			
				<line fill="none" stroke="#333333" stroke-width="1.07" stroke-linejoin="round" stroke-dasharray="5.0487,5.0487" x1="79.9" y1="377.8" x2="552" y2="377.8"/>
			<line fill="none" stroke="#333333" stroke-width="1.07" stroke-linejoin="round" x1="554.5" y1="377.8" x2="557" y2="377.8"/>
		</g>
	</g>
</g>
<g>
	<g>
		<g>
			<line fill="none" stroke="#333333" stroke-width="1.07" stroke-linejoin="round" x1="72.4" y1="290.5" x2="74.9" y2="290.5"/>
			
				<line fill="none" stroke="#333333" stroke-width="1.07" stroke-linejoin="round" stroke-dasharray="5.0487,5.0487" x1="79.9" y1="290.5" x2="552" y2="290.5"/>
			<line fill="none" stroke="#333333" stroke-width="1.07" stroke-linejoin="round" x1="554.5" y1="290.5" x2="557" y2="290.5"/>
		</g>
	</g>
</g>
<g>
	<g>
		<text transform="matrix(1 0 0 1 66.4783 582.0179)" fill="#4D4D4D" font-family="'ArialMT'" font-size="24">2010</text>
	</g>
</g>
<g>
	<g>
		<text transform="matrix(1 0 0 1 200.1123 582.0179)" fill="#4D4D4D" font-family="'ArialMT'" font-size="24">2012</text>
	</g>
</g>
<g>
	<g>
		<text transform="matrix(1 0 0 1 344.9492 582.0179)" fill="#4D4D4D" font-family="'ArialMT'" font-size="24">2014</text>
	</g>
</g>
<g>
	<g>
		<text transform="matrix(1 0 0 1 489.5957 582.0179)" fill="#4D4D4D" font-family="'ArialMT'" font-size="24">2016</text>
	</g>
</g>
<text transform="matrix(1 0 0 1 16 266.8896)" font-family="'PingFangTC-Regular-B5pc-H'" font-size="24">海盜活動件數</text>
</svg>

