<?xml version="1.0" encoding="iso-8859-1"?>
<!-- Generator: Adobe Illustrator 18.0.0, SVG Export Plug-In . SVG Version: 6.00 Build 0)  -->
<!DOCTYPE svg PUBLIC "-//W3C//DTD SVG 1.1//EN" "http://www.w3.org/Graphics/SVG/1.1/DTD/svg11.dtd">
<svg version="1.1" id="&#x5716;&#x5C64;_1" xmlns="http://www.w3.org/2000/svg" xmlns:xlink="http://www.w3.org/1999/xlink" x="0px"
	 y="0px" viewBox="0 0 1280.07 387.371" style="enable-background:new 0 0 1280.07 387.371;" xml:space="preserve">
<rect x="-0.065" y="0" style="fill:#12337C;" width="1279.565" height="387.371"/>
<g>
	<line style="fill:#F2F2F2;" x1="0" y1="16.136" x2="1280" y2="16.136"/>
	<g>
		<g>
			<g>
				<g>
					<g>
						<rect y="-6.538" style="fill:none;" width="40" height="44.995"/>
					</g>
					<rect x="29.62" y="14.368" style="fill-rule:evenodd;clip-rule:evenodd;fill:#F3F3F3;" width="7.425" height="4.5"/>
					<rect x="16.304" y="14.368" style="fill-rule:evenodd;clip-rule:evenodd;fill:#F3F3F3;" width="7.425" height="4.5"/>
					<rect x="3.031" y="14.368" style="fill-rule:evenodd;clip-rule:evenodd;fill:#F3F3F3;" width="7.425" height="4.5"/>
				</g>
			</g>
			<g>
				<g>
					<g>
						<rect x="40" y="-6.538" style="fill:none;" width="40" height="44.995"/>
					</g>
					<rect x="69.62" y="14.368" style="fill-rule:evenodd;clip-rule:evenodd;fill:#F3F3F3;" width="7.425" height="4.5"/>
					<rect x="56.304" y="14.368" style="fill-rule:evenodd;clip-rule:evenodd;fill:#F3F3F3;" width="7.425" height="4.5"/>
					<rect x="43.031" y="14.368" style="fill-rule:evenodd;clip-rule:evenodd;fill:#F3F3F3;" width="7.425" height="4.5"/>
				</g>
			</g>
			<g>
				<g>
					<g>
						<rect x="80" y="-6.538" style="fill:none;" width="40" height="44.995"/>
					</g>
					<rect x="109.62" y="14.368" style="fill-rule:evenodd;clip-rule:evenodd;fill:#F3F3F3;" width="7.425" height="4.5"/>
					<rect x="96.304" y="14.368" style="fill-rule:evenodd;clip-rule:evenodd;fill:#F3F3F3;" width="7.425" height="4.5"/>
					<rect x="83.031" y="14.368" style="fill-rule:evenodd;clip-rule:evenodd;fill:#F3F3F3;" width="7.425" height="4.5"/>
				</g>
			</g>
			<g>
				<g>
					<g>
						<rect x="120" y="-6.538" style="fill:none;" width="40" height="44.995"/>
					</g>
					<rect x="149.62" y="14.368" style="fill-rule:evenodd;clip-rule:evenodd;fill:#F3F3F3;" width="7.425" height="4.5"/>
					<rect x="136.304" y="14.368" style="fill-rule:evenodd;clip-rule:evenodd;fill:#F3F3F3;" width="7.425" height="4.5"/>
					<rect x="123.031" y="14.368" style="fill-rule:evenodd;clip-rule:evenodd;fill:#F3F3F3;" width="7.425" height="4.5"/>
				</g>
			</g>
			<g>
				<g>
					<g>
						<rect x="160" y="-6.538" style="fill:none;" width="40" height="44.995"/>
					</g>
					<rect x="189.62" y="14.368" style="fill-rule:evenodd;clip-rule:evenodd;fill:#F3F3F3;" width="7.425" height="4.5"/>
					<rect x="176.304" y="14.368" style="fill-rule:evenodd;clip-rule:evenodd;fill:#F3F3F3;" width="7.425" height="4.5"/>
					<rect x="163.031" y="14.368" style="fill-rule:evenodd;clip-rule:evenodd;fill:#F3F3F3;" width="7.425" height="4.5"/>
				</g>
			</g>
			<g>
				<g>
					<g>
						<rect x="200" y="-6.538" style="fill:none;" width="40" height="44.995"/>
					</g>
					<rect x="229.62" y="14.368" style="fill-rule:evenodd;clip-rule:evenodd;fill:#F3F3F3;" width="7.425" height="4.5"/>
					<rect x="216.304" y="14.368" style="fill-rule:evenodd;clip-rule:evenodd;fill:#F3F3F3;" width="7.425" height="4.5"/>
					<rect x="203.031" y="14.368" style="fill-rule:evenodd;clip-rule:evenodd;fill:#F3F3F3;" width="7.425" height="4.5"/>
				</g>
			</g>
			<g>
				<g>
					<g>
						<rect x="240" y="-6.538" style="fill:none;" width="40" height="44.995"/>
					</g>
					<rect x="269.62" y="14.368" style="fill-rule:evenodd;clip-rule:evenodd;fill:#F3F3F3;" width="7.425" height="4.5"/>
					<rect x="256.304" y="14.368" style="fill-rule:evenodd;clip-rule:evenodd;fill:#F3F3F3;" width="7.425" height="4.5"/>
					<rect x="243.031" y="14.368" style="fill-rule:evenodd;clip-rule:evenodd;fill:#F3F3F3;" width="7.425" height="4.5"/>
				</g>
			</g>
			<g>
				<g>
					<g>
						<rect x="280" y="-6.538" style="fill:none;" width="40" height="44.995"/>
					</g>
					<rect x="309.62" y="14.368" style="fill-rule:evenodd;clip-rule:evenodd;fill:#F3F3F3;" width="7.425" height="4.5"/>
					<rect x="296.304" y="14.368" style="fill-rule:evenodd;clip-rule:evenodd;fill:#F3F3F3;" width="7.425" height="4.5"/>
					<rect x="283.031" y="14.368" style="fill-rule:evenodd;clip-rule:evenodd;fill:#F3F3F3;" width="7.425" height="4.5"/>
				</g>
			</g>
			<g>
				<g>
					<g>
						<rect x="320" y="-6.538" style="fill:none;" width="40" height="44.995"/>
					</g>
					<rect x="349.62" y="14.368" style="fill-rule:evenodd;clip-rule:evenodd;fill:#F3F3F3;" width="7.425" height="4.5"/>
					<rect x="336.304" y="14.368" style="fill-rule:evenodd;clip-rule:evenodd;fill:#F3F3F3;" width="7.425" height="4.5"/>
					<rect x="323.031" y="14.368" style="fill-rule:evenodd;clip-rule:evenodd;fill:#F3F3F3;" width="7.425" height="4.5"/>
				</g>
			</g>
			<g>
				<g>
					<g>
						<rect x="360" y="-6.538" style="fill:none;" width="40" height="44.995"/>
					</g>
					<rect x="389.62" y="14.368" style="fill-rule:evenodd;clip-rule:evenodd;fill:#F3F3F3;" width="7.425" height="4.5"/>
					<rect x="376.304" y="14.368" style="fill-rule:evenodd;clip-rule:evenodd;fill:#F3F3F3;" width="7.425" height="4.5"/>
					<rect x="363.031" y="14.368" style="fill-rule:evenodd;clip-rule:evenodd;fill:#F3F3F3;" width="7.425" height="4.5"/>
				</g>
			</g>
			<g>
				<g>
					<g>
						<rect x="400" y="-6.538" style="fill:none;" width="40" height="44.995"/>
					</g>
					<rect x="429.62" y="14.368" style="fill-rule:evenodd;clip-rule:evenodd;fill:#F3F3F3;" width="7.425" height="4.5"/>
					<rect x="416.304" y="14.368" style="fill-rule:evenodd;clip-rule:evenodd;fill:#F3F3F3;" width="7.425" height="4.5"/>
					<rect x="403.031" y="14.368" style="fill-rule:evenodd;clip-rule:evenodd;fill:#F3F3F3;" width="7.425" height="4.5"/>
				</g>
			</g>
			<g>
				<g>
					<g>
						<rect x="440" y="-6.538" style="fill:none;" width="40" height="44.995"/>
					</g>
					<rect x="469.62" y="14.368" style="fill-rule:evenodd;clip-rule:evenodd;fill:#F3F3F3;" width="7.425" height="4.5"/>
					<rect x="456.304" y="14.368" style="fill-rule:evenodd;clip-rule:evenodd;fill:#F3F3F3;" width="7.425" height="4.5"/>
					<rect x="443.031" y="14.368" style="fill-rule:evenodd;clip-rule:evenodd;fill:#F3F3F3;" width="7.425" height="4.5"/>
				</g>
			</g>
			<g>
				<g>
					<g>
						<rect x="480" y="-6.538" style="fill:none;" width="40" height="44.995"/>
					</g>
					<rect x="509.62" y="14.368" style="fill-rule:evenodd;clip-rule:evenodd;fill:#F3F3F3;" width="7.425" height="4.5"/>
					<rect x="496.304" y="14.368" style="fill-rule:evenodd;clip-rule:evenodd;fill:#F3F3F3;" width="7.425" height="4.5"/>
					<rect x="483.031" y="14.368" style="fill-rule:evenodd;clip-rule:evenodd;fill:#F3F3F3;" width="7.425" height="4.5"/>
				</g>
			</g>
			<g>
				<g>
					<g>
						<rect x="520" y="-6.538" style="fill:none;" width="40" height="44.995"/>
					</g>
					<rect x="549.62" y="14.368" style="fill-rule:evenodd;clip-rule:evenodd;fill:#F3F3F3;" width="7.425" height="4.5"/>
					<rect x="536.304" y="14.368" style="fill-rule:evenodd;clip-rule:evenodd;fill:#F3F3F3;" width="7.425" height="4.5"/>
					<rect x="523.031" y="14.368" style="fill-rule:evenodd;clip-rule:evenodd;fill:#F3F3F3;" width="7.425" height="4.5"/>
				</g>
			</g>
			<g>
				<g>
					<g>
						<rect x="560" y="-6.538" style="fill:none;" width="40" height="44.995"/>
					</g>
					<rect x="589.62" y="14.368" style="fill-rule:evenodd;clip-rule:evenodd;fill:#F3F3F3;" width="7.425" height="4.5"/>
					<rect x="576.304" y="14.368" style="fill-rule:evenodd;clip-rule:evenodd;fill:#F3F3F3;" width="7.425" height="4.5"/>
					<rect x="563.031" y="14.368" style="fill-rule:evenodd;clip-rule:evenodd;fill:#F3F3F3;" width="7.425" height="4.5"/>
				</g>
			</g>
			<g>
				<g>
					<g>
						<rect x="600" y="-6.538" style="fill:none;" width="40" height="44.995"/>
					</g>
					<rect x="629.62" y="14.368" style="fill-rule:evenodd;clip-rule:evenodd;fill:#F3F3F3;" width="7.425" height="4.5"/>
					<rect x="616.304" y="14.368" style="fill-rule:evenodd;clip-rule:evenodd;fill:#F3F3F3;" width="7.425" height="4.5"/>
					<rect x="603.031" y="14.368" style="fill-rule:evenodd;clip-rule:evenodd;fill:#F3F3F3;" width="7.425" height="4.5"/>
				</g>
			</g>
			<g>
				<g>
					<g>
						<rect x="640" y="-6.538" style="fill:none;" width="40" height="44.995"/>
					</g>
					<rect x="669.62" y="14.368" style="fill-rule:evenodd;clip-rule:evenodd;fill:#F3F3F3;" width="7.425" height="4.5"/>
					<rect x="656.304" y="14.368" style="fill-rule:evenodd;clip-rule:evenodd;fill:#F3F3F3;" width="7.425" height="4.5"/>
					<rect x="643.031" y="14.368" style="fill-rule:evenodd;clip-rule:evenodd;fill:#F3F3F3;" width="7.425" height="4.5"/>
				</g>
			</g>
			<g>
				<g>
					<g>
						<rect x="680" y="-6.538" style="fill:none;" width="40" height="44.995"/>
					</g>
					<rect x="709.62" y="14.368" style="fill-rule:evenodd;clip-rule:evenodd;fill:#F3F3F3;" width="7.425" height="4.5"/>
					<rect x="696.304" y="14.368" style="fill-rule:evenodd;clip-rule:evenodd;fill:#F3F3F3;" width="7.425" height="4.5"/>
					<rect x="683.031" y="14.368" style="fill-rule:evenodd;clip-rule:evenodd;fill:#F3F3F3;" width="7.425" height="4.5"/>
				</g>
			</g>
			<g>
				<g>
					<g>
						<rect x="720" y="-6.538" style="fill:none;" width="40" height="44.995"/>
					</g>
					<rect x="749.62" y="14.368" style="fill-rule:evenodd;clip-rule:evenodd;fill:#F3F3F3;" width="7.425" height="4.5"/>
					<rect x="736.304" y="14.368" style="fill-rule:evenodd;clip-rule:evenodd;fill:#F3F3F3;" width="7.425" height="4.5"/>
					<rect x="723.031" y="14.368" style="fill-rule:evenodd;clip-rule:evenodd;fill:#F3F3F3;" width="7.425" height="4.5"/>
				</g>
			</g>
			<g>
				<g>
					<g>
						<rect x="760" y="-6.538" style="fill:none;" width="40" height="44.995"/>
					</g>
					<rect x="789.62" y="14.368" style="fill-rule:evenodd;clip-rule:evenodd;fill:#F3F3F3;" width="7.425" height="4.5"/>
					<rect x="776.304" y="14.368" style="fill-rule:evenodd;clip-rule:evenodd;fill:#F3F3F3;" width="7.425" height="4.5"/>
					<rect x="763.031" y="14.368" style="fill-rule:evenodd;clip-rule:evenodd;fill:#F3F3F3;" width="7.425" height="4.5"/>
				</g>
			</g>
			<g>
				<g>
					<g>
						<rect x="800" y="-6.538" style="fill:none;" width="40" height="44.995"/>
					</g>
					<rect x="829.62" y="14.368" style="fill-rule:evenodd;clip-rule:evenodd;fill:#F3F3F3;" width="7.425" height="4.5"/>
					<rect x="816.304" y="14.368" style="fill-rule:evenodd;clip-rule:evenodd;fill:#F3F3F3;" width="7.425" height="4.5"/>
					<rect x="803.031" y="14.368" style="fill-rule:evenodd;clip-rule:evenodd;fill:#F3F3F3;" width="7.425" height="4.5"/>
				</g>
			</g>
			<g>
				<g>
					<g>
						<rect x="840" y="-6.538" style="fill:none;" width="40" height="44.995"/>
					</g>
					<rect x="869.62" y="14.368" style="fill-rule:evenodd;clip-rule:evenodd;fill:#F3F3F3;" width="7.425" height="4.5"/>
					<rect x="856.304" y="14.368" style="fill-rule:evenodd;clip-rule:evenodd;fill:#F3F3F3;" width="7.425" height="4.5"/>
					<rect x="843.031" y="14.368" style="fill-rule:evenodd;clip-rule:evenodd;fill:#F3F3F3;" width="7.425" height="4.5"/>
				</g>
			</g>
			<g>
				<g>
					<g>
						<rect x="880" y="-6.538" style="fill:none;" width="40" height="44.995"/>
					</g>
					<rect x="909.62" y="14.368" style="fill-rule:evenodd;clip-rule:evenodd;fill:#F3F3F3;" width="7.425" height="4.5"/>
					<rect x="896.304" y="14.368" style="fill-rule:evenodd;clip-rule:evenodd;fill:#F3F3F3;" width="7.425" height="4.5"/>
					<rect x="883.031" y="14.368" style="fill-rule:evenodd;clip-rule:evenodd;fill:#F3F3F3;" width="7.425" height="4.5"/>
				</g>
			</g>
			<g>
				<g>
					<g>
						<rect x="920" y="-6.538" style="fill:none;" width="40" height="44.995"/>
					</g>
					<rect x="949.62" y="14.368" style="fill-rule:evenodd;clip-rule:evenodd;fill:#F3F3F3;" width="7.425" height="4.5"/>
					<rect x="936.304" y="14.368" style="fill-rule:evenodd;clip-rule:evenodd;fill:#F3F3F3;" width="7.425" height="4.5"/>
					<rect x="923.031" y="14.368" style="fill-rule:evenodd;clip-rule:evenodd;fill:#F3F3F3;" width="7.425" height="4.5"/>
				</g>
			</g>
			<g>
				<g>
					<g>
						<rect x="960" y="-6.538" style="fill:none;" width="40" height="44.995"/>
					</g>
					<rect x="989.62" y="14.368" style="fill-rule:evenodd;clip-rule:evenodd;fill:#F3F3F3;" width="7.425" height="4.5"/>
					<rect x="976.304" y="14.368" style="fill-rule:evenodd;clip-rule:evenodd;fill:#F3F3F3;" width="7.425" height="4.5"/>
					<rect x="963.031" y="14.368" style="fill-rule:evenodd;clip-rule:evenodd;fill:#F3F3F3;" width="7.425" height="4.5"/>
				</g>
			</g>
			<g>
				<g>
					<g>
						<rect x="1000" y="-6.538" style="fill:none;" width="40" height="44.995"/>
					</g>
					<rect x="1029.62" y="14.368" style="fill-rule:evenodd;clip-rule:evenodd;fill:#F3F3F3;" width="7.425" height="4.5"/>
					<rect x="1016.304" y="14.368" style="fill-rule:evenodd;clip-rule:evenodd;fill:#F3F3F3;" width="7.425" height="4.5"/>
					<rect x="1003.031" y="14.368" style="fill-rule:evenodd;clip-rule:evenodd;fill:#F3F3F3;" width="7.425" height="4.5"/>
				</g>
			</g>
			<g>
				<g>
					<g>
						<rect x="1040" y="-6.538" style="fill:none;" width="40" height="44.995"/>
					</g>
					<rect x="1069.62" y="14.368" style="fill-rule:evenodd;clip-rule:evenodd;fill:#F3F3F3;" width="7.425" height="4.5"/>
					<rect x="1056.304" y="14.368" style="fill-rule:evenodd;clip-rule:evenodd;fill:#F3F3F3;" width="7.425" height="4.5"/>
					<rect x="1043.031" y="14.368" style="fill-rule:evenodd;clip-rule:evenodd;fill:#F3F3F3;" width="7.425" height="4.5"/>
				</g>
			</g>
			<g>
				<g>
					<g>
						<rect x="1080" y="-6.538" style="fill:none;" width="40" height="44.995"/>
					</g>
					<rect x="1109.62" y="14.368" style="fill-rule:evenodd;clip-rule:evenodd;fill:#F3F3F3;" width="7.425" height="4.5"/>
					<rect x="1096.304" y="14.368" style="fill-rule:evenodd;clip-rule:evenodd;fill:#F3F3F3;" width="7.425" height="4.5"/>
					<rect x="1083.031" y="14.368" style="fill-rule:evenodd;clip-rule:evenodd;fill:#F3F3F3;" width="7.425" height="4.5"/>
				</g>
			</g>
			<g>
				<g>
					<g>
						<rect x="1120" y="-6.538" style="fill:none;" width="40" height="44.995"/>
					</g>
					<rect x="1149.62" y="14.368" style="fill-rule:evenodd;clip-rule:evenodd;fill:#F3F3F3;" width="7.425" height="4.5"/>
					<rect x="1136.304" y="14.368" style="fill-rule:evenodd;clip-rule:evenodd;fill:#F3F3F3;" width="7.425" height="4.5"/>
					<rect x="1123.031" y="14.368" style="fill-rule:evenodd;clip-rule:evenodd;fill:#F3F3F3;" width="7.425" height="4.5"/>
				</g>
			</g>
			<g>
				<g>
					<g>
						<rect x="1160" y="-6.538" style="fill:none;" width="40" height="44.995"/>
					</g>
					<rect x="1189.62" y="14.368" style="fill-rule:evenodd;clip-rule:evenodd;fill:#F3F3F3;" width="7.425" height="4.5"/>
					<rect x="1176.304" y="14.368" style="fill-rule:evenodd;clip-rule:evenodd;fill:#F3F3F3;" width="7.425" height="4.5"/>
					<rect x="1163.031" y="14.368" style="fill-rule:evenodd;clip-rule:evenodd;fill:#F3F3F3;" width="7.425" height="4.5"/>
				</g>
			</g>
			<g>
				<g>
					<g>
						<rect x="1200" y="-6.538" style="fill:none;" width="40" height="44.995"/>
					</g>
					<rect x="1229.62" y="14.368" style="fill-rule:evenodd;clip-rule:evenodd;fill:#F3F3F3;" width="7.425" height="4.5"/>
					<rect x="1216.304" y="14.368" style="fill-rule:evenodd;clip-rule:evenodd;fill:#F3F3F3;" width="7.425" height="4.5"/>
					<rect x="1203.031" y="14.368" style="fill-rule:evenodd;clip-rule:evenodd;fill:#F3F3F3;" width="7.425" height="4.5"/>
				</g>
			</g>
			<g>
				<g>
					<g>
						<rect x="1240" y="-6.538" style="fill:none;" width="40" height="44.995"/>
					</g>
					<rect x="1269.62" y="14.368" style="fill-rule:evenodd;clip-rule:evenodd;fill:#F3F3F3;" width="7.425" height="4.5"/>
					<rect x="1256.304" y="14.368" style="fill-rule:evenodd;clip-rule:evenodd;fill:#F3F3F3;" width="7.425" height="4.5"/>
					<rect x="1243.031" y="14.368" style="fill-rule:evenodd;clip-rule:evenodd;fill:#F3F3F3;" width="7.425" height="4.5"/>
				</g>
			</g>
		</g>
	</g>
</g>
<g>
	<line style="fill:#F2F2F2;" x1="0" y1="367.136" x2="1280" y2="367.136"/>
	<g>
		<g>
			<g>
				<g>
					<g>
						<rect y="344.412" style="fill:none;" width="40" height="44.995"/>
					</g>
					<rect x="29.62" y="365.318" style="fill-rule:evenodd;clip-rule:evenodd;fill:#F3F3F3;" width="7.425" height="4.5"/>
					<rect x="16.304" y="365.318" style="fill-rule:evenodd;clip-rule:evenodd;fill:#F3F3F3;" width="7.425" height="4.5"/>
					<rect x="3.031" y="365.318" style="fill-rule:evenodd;clip-rule:evenodd;fill:#F3F3F3;" width="7.425" height="4.5"/>
				</g>
			</g>
			<g>
				<g>
					<g>
						<rect x="40" y="344.412" style="fill:none;" width="40" height="44.995"/>
					</g>
					<rect x="69.62" y="365.318" style="fill-rule:evenodd;clip-rule:evenodd;fill:#F3F3F3;" width="7.425" height="4.5"/>
					<rect x="56.304" y="365.318" style="fill-rule:evenodd;clip-rule:evenodd;fill:#F3F3F3;" width="7.425" height="4.5"/>
					<rect x="43.031" y="365.318" style="fill-rule:evenodd;clip-rule:evenodd;fill:#F3F3F3;" width="7.425" height="4.5"/>
				</g>
			</g>
			<g>
				<g>
					<g>
						<rect x="80" y="344.412" style="fill:none;" width="40" height="44.995"/>
					</g>
					<rect x="109.62" y="365.318" style="fill-rule:evenodd;clip-rule:evenodd;fill:#F3F3F3;" width="7.425" height="4.5"/>
					<rect x="96.304" y="365.318" style="fill-rule:evenodd;clip-rule:evenodd;fill:#F3F3F3;" width="7.425" height="4.5"/>
					<rect x="83.031" y="365.318" style="fill-rule:evenodd;clip-rule:evenodd;fill:#F3F3F3;" width="7.425" height="4.5"/>
				</g>
			</g>
			<g>
				<g>
					<g>
						<rect x="120" y="344.412" style="fill:none;" width="40" height="44.995"/>
					</g>
					<rect x="149.62" y="365.318" style="fill-rule:evenodd;clip-rule:evenodd;fill:#F3F3F3;" width="7.425" height="4.5"/>
					<rect x="136.304" y="365.318" style="fill-rule:evenodd;clip-rule:evenodd;fill:#F3F3F3;" width="7.425" height="4.5"/>
					<rect x="123.031" y="365.318" style="fill-rule:evenodd;clip-rule:evenodd;fill:#F3F3F3;" width="7.425" height="4.5"/>
				</g>
			</g>
			<g>
				<g>
					<g>
						<rect x="160" y="344.412" style="fill:none;" width="40" height="44.995"/>
					</g>
					<rect x="189.62" y="365.318" style="fill-rule:evenodd;clip-rule:evenodd;fill:#F3F3F3;" width="7.425" height="4.5"/>
					<rect x="176.304" y="365.318" style="fill-rule:evenodd;clip-rule:evenodd;fill:#F3F3F3;" width="7.425" height="4.5"/>
					<rect x="163.031" y="365.318" style="fill-rule:evenodd;clip-rule:evenodd;fill:#F3F3F3;" width="7.425" height="4.5"/>
				</g>
			</g>
			<g>
				<g>
					<g>
						<rect x="200" y="344.412" style="fill:none;" width="40" height="44.995"/>
					</g>
					<rect x="229.62" y="365.318" style="fill-rule:evenodd;clip-rule:evenodd;fill:#F3F3F3;" width="7.425" height="4.5"/>
					<rect x="216.304" y="365.318" style="fill-rule:evenodd;clip-rule:evenodd;fill:#F3F3F3;" width="7.425" height="4.5"/>
					<rect x="203.031" y="365.318" style="fill-rule:evenodd;clip-rule:evenodd;fill:#F3F3F3;" width="7.425" height="4.5"/>
				</g>
			</g>
			<g>
				<g>
					<g>
						<rect x="240" y="344.412" style="fill:none;" width="40" height="44.995"/>
					</g>
					<rect x="269.62" y="365.318" style="fill-rule:evenodd;clip-rule:evenodd;fill:#F3F3F3;" width="7.425" height="4.5"/>
					<rect x="256.304" y="365.318" style="fill-rule:evenodd;clip-rule:evenodd;fill:#F3F3F3;" width="7.425" height="4.5"/>
					<rect x="243.031" y="365.318" style="fill-rule:evenodd;clip-rule:evenodd;fill:#F3F3F3;" width="7.425" height="4.5"/>
				</g>
			</g>
			<g>
				<g>
					<g>
						<rect x="280" y="344.412" style="fill:none;" width="40" height="44.995"/>
					</g>
					<rect x="309.62" y="365.318" style="fill-rule:evenodd;clip-rule:evenodd;fill:#F3F3F3;" width="7.425" height="4.5"/>
					<rect x="296.304" y="365.318" style="fill-rule:evenodd;clip-rule:evenodd;fill:#F3F3F3;" width="7.425" height="4.5"/>
					<rect x="283.031" y="365.318" style="fill-rule:evenodd;clip-rule:evenodd;fill:#F3F3F3;" width="7.425" height="4.5"/>
				</g>
			</g>
			<g>
				<g>
					<g>
						<rect x="320" y="344.412" style="fill:none;" width="40" height="44.995"/>
					</g>
					<rect x="349.62" y="365.318" style="fill-rule:evenodd;clip-rule:evenodd;fill:#F3F3F3;" width="7.425" height="4.5"/>
					<rect x="336.304" y="365.318" style="fill-rule:evenodd;clip-rule:evenodd;fill:#F3F3F3;" width="7.425" height="4.5"/>
					<rect x="323.031" y="365.318" style="fill-rule:evenodd;clip-rule:evenodd;fill:#F3F3F3;" width="7.425" height="4.5"/>
				</g>
			</g>
			<g>
				<g>
					<g>
						<rect x="360" y="344.412" style="fill:none;" width="40" height="44.995"/>
					</g>
					<rect x="389.62" y="365.318" style="fill-rule:evenodd;clip-rule:evenodd;fill:#F3F3F3;" width="7.425" height="4.5"/>
					<rect x="376.304" y="365.318" style="fill-rule:evenodd;clip-rule:evenodd;fill:#F3F3F3;" width="7.425" height="4.5"/>
					<rect x="363.031" y="365.318" style="fill-rule:evenodd;clip-rule:evenodd;fill:#F3F3F3;" width="7.425" height="4.5"/>
				</g>
			</g>
			<g>
				<g>
					<g>
						<rect x="400" y="344.412" style="fill:none;" width="40" height="44.995"/>
					</g>
					<rect x="429.62" y="365.318" style="fill-rule:evenodd;clip-rule:evenodd;fill:#F3F3F3;" width="7.425" height="4.5"/>
					<rect x="416.304" y="365.318" style="fill-rule:evenodd;clip-rule:evenodd;fill:#F3F3F3;" width="7.425" height="4.5"/>
					<rect x="403.031" y="365.318" style="fill-rule:evenodd;clip-rule:evenodd;fill:#F3F3F3;" width="7.425" height="4.5"/>
				</g>
			</g>
			<g>
				<g>
					<g>
						<rect x="440" y="344.412" style="fill:none;" width="40" height="44.995"/>
					</g>
					<rect x="469.62" y="365.318" style="fill-rule:evenodd;clip-rule:evenodd;fill:#F3F3F3;" width="7.425" height="4.5"/>
					<rect x="456.304" y="365.318" style="fill-rule:evenodd;clip-rule:evenodd;fill:#F3F3F3;" width="7.425" height="4.5"/>
					<rect x="443.031" y="365.318" style="fill-rule:evenodd;clip-rule:evenodd;fill:#F3F3F3;" width="7.425" height="4.5"/>
				</g>
			</g>
			<g>
				<g>
					<g>
						<rect x="480" y="344.412" style="fill:none;" width="40" height="44.995"/>
					</g>
					<rect x="509.62" y="365.318" style="fill-rule:evenodd;clip-rule:evenodd;fill:#F3F3F3;" width="7.425" height="4.5"/>
					<rect x="496.304" y="365.318" style="fill-rule:evenodd;clip-rule:evenodd;fill:#F3F3F3;" width="7.425" height="4.5"/>
					<rect x="483.031" y="365.318" style="fill-rule:evenodd;clip-rule:evenodd;fill:#F3F3F3;" width="7.425" height="4.5"/>
				</g>
			</g>
			<g>
				<g>
					<g>
						<rect x="520" y="344.412" style="fill:none;" width="40" height="44.995"/>
					</g>
					<rect x="549.62" y="365.318" style="fill-rule:evenodd;clip-rule:evenodd;fill:#F3F3F3;" width="7.425" height="4.5"/>
					<rect x="536.304" y="365.318" style="fill-rule:evenodd;clip-rule:evenodd;fill:#F3F3F3;" width="7.425" height="4.5"/>
					<rect x="523.031" y="365.318" style="fill-rule:evenodd;clip-rule:evenodd;fill:#F3F3F3;" width="7.425" height="4.5"/>
				</g>
			</g>
			<g>
				<g>
					<g>
						<rect x="560" y="344.412" style="fill:none;" width="40" height="44.995"/>
					</g>
					<rect x="589.62" y="365.318" style="fill-rule:evenodd;clip-rule:evenodd;fill:#F3F3F3;" width="7.425" height="4.5"/>
					<rect x="576.304" y="365.318" style="fill-rule:evenodd;clip-rule:evenodd;fill:#F3F3F3;" width="7.425" height="4.5"/>
					<rect x="563.031" y="365.318" style="fill-rule:evenodd;clip-rule:evenodd;fill:#F3F3F3;" width="7.425" height="4.5"/>
				</g>
			</g>
			<g>
				<g>
					<g>
						<rect x="600" y="344.412" style="fill:none;" width="40" height="44.995"/>
					</g>
					<rect x="629.62" y="365.318" style="fill-rule:evenodd;clip-rule:evenodd;fill:#F3F3F3;" width="7.425" height="4.5"/>
					<rect x="616.304" y="365.318" style="fill-rule:evenodd;clip-rule:evenodd;fill:#F3F3F3;" width="7.425" height="4.5"/>
					<rect x="603.031" y="365.318" style="fill-rule:evenodd;clip-rule:evenodd;fill:#F3F3F3;" width="7.425" height="4.5"/>
				</g>
			</g>
			<g>
				<g>
					<g>
						<rect x="640" y="344.412" style="fill:none;" width="40" height="44.995"/>
					</g>
					<rect x="669.62" y="365.318" style="fill-rule:evenodd;clip-rule:evenodd;fill:#F3F3F3;" width="7.425" height="4.5"/>
					<rect x="656.304" y="365.318" style="fill-rule:evenodd;clip-rule:evenodd;fill:#F3F3F3;" width="7.425" height="4.5"/>
					<rect x="643.031" y="365.318" style="fill-rule:evenodd;clip-rule:evenodd;fill:#F3F3F3;" width="7.425" height="4.5"/>
				</g>
			</g>
			<g>
				<g>
					<g>
						<rect x="680" y="344.412" style="fill:none;" width="40" height="44.995"/>
					</g>
					<rect x="709.62" y="365.318" style="fill-rule:evenodd;clip-rule:evenodd;fill:#F3F3F3;" width="7.425" height="4.5"/>
					<rect x="696.304" y="365.318" style="fill-rule:evenodd;clip-rule:evenodd;fill:#F3F3F3;" width="7.425" height="4.5"/>
					<rect x="683.031" y="365.318" style="fill-rule:evenodd;clip-rule:evenodd;fill:#F3F3F3;" width="7.425" height="4.5"/>
				</g>
			</g>
			<g>
				<g>
					<g>
						<rect x="720" y="344.412" style="fill:none;" width="40" height="44.995"/>
					</g>
					<rect x="749.62" y="365.318" style="fill-rule:evenodd;clip-rule:evenodd;fill:#F3F3F3;" width="7.425" height="4.5"/>
					<rect x="736.304" y="365.318" style="fill-rule:evenodd;clip-rule:evenodd;fill:#F3F3F3;" width="7.425" height="4.5"/>
					<rect x="723.031" y="365.318" style="fill-rule:evenodd;clip-rule:evenodd;fill:#F3F3F3;" width="7.425" height="4.5"/>
				</g>
			</g>
			<g>
				<g>
					<g>
						<rect x="760" y="344.412" style="fill:none;" width="40" height="44.995"/>
					</g>
					<rect x="789.62" y="365.318" style="fill-rule:evenodd;clip-rule:evenodd;fill:#F3F3F3;" width="7.425" height="4.5"/>
					<rect x="776.304" y="365.318" style="fill-rule:evenodd;clip-rule:evenodd;fill:#F3F3F3;" width="7.425" height="4.5"/>
					<rect x="763.031" y="365.318" style="fill-rule:evenodd;clip-rule:evenodd;fill:#F3F3F3;" width="7.425" height="4.5"/>
				</g>
			</g>
			<g>
				<g>
					<g>
						<rect x="800" y="344.412" style="fill:none;" width="40" height="44.995"/>
					</g>
					<rect x="829.62" y="365.318" style="fill-rule:evenodd;clip-rule:evenodd;fill:#F3F3F3;" width="7.425" height="4.5"/>
					<rect x="816.304" y="365.318" style="fill-rule:evenodd;clip-rule:evenodd;fill:#F3F3F3;" width="7.425" height="4.5"/>
					<rect x="803.031" y="365.318" style="fill-rule:evenodd;clip-rule:evenodd;fill:#F3F3F3;" width="7.425" height="4.5"/>
				</g>
			</g>
			<g>
				<g>
					<g>
						<rect x="840" y="344.412" style="fill:none;" width="40" height="44.995"/>
					</g>
					<rect x="869.62" y="365.318" style="fill-rule:evenodd;clip-rule:evenodd;fill:#F3F3F3;" width="7.425" height="4.5"/>
					<rect x="856.304" y="365.318" style="fill-rule:evenodd;clip-rule:evenodd;fill:#F3F3F3;" width="7.425" height="4.5"/>
					<rect x="843.031" y="365.318" style="fill-rule:evenodd;clip-rule:evenodd;fill:#F3F3F3;" width="7.425" height="4.5"/>
				</g>
			</g>
			<g>
				<g>
					<g>
						<rect x="880" y="344.412" style="fill:none;" width="40" height="44.995"/>
					</g>
					<rect x="909.62" y="365.318" style="fill-rule:evenodd;clip-rule:evenodd;fill:#F3F3F3;" width="7.425" height="4.5"/>
					<rect x="896.304" y="365.318" style="fill-rule:evenodd;clip-rule:evenodd;fill:#F3F3F3;" width="7.425" height="4.5"/>
					<rect x="883.031" y="365.318" style="fill-rule:evenodd;clip-rule:evenodd;fill:#F3F3F3;" width="7.425" height="4.5"/>
				</g>
			</g>
			<g>
				<g>
					<g>
						<rect x="920" y="344.412" style="fill:none;" width="40" height="44.995"/>
					</g>
					<rect x="949.62" y="365.318" style="fill-rule:evenodd;clip-rule:evenodd;fill:#F3F3F3;" width="7.425" height="4.5"/>
					<rect x="936.304" y="365.318" style="fill-rule:evenodd;clip-rule:evenodd;fill:#F3F3F3;" width="7.425" height="4.5"/>
					<rect x="923.031" y="365.318" style="fill-rule:evenodd;clip-rule:evenodd;fill:#F3F3F3;" width="7.425" height="4.5"/>
				</g>
			</g>
			<g>
				<g>
					<g>
						<rect x="960" y="344.412" style="fill:none;" width="40" height="44.995"/>
					</g>
					<rect x="989.62" y="365.318" style="fill-rule:evenodd;clip-rule:evenodd;fill:#F3F3F3;" width="7.425" height="4.5"/>
					<rect x="976.304" y="365.318" style="fill-rule:evenodd;clip-rule:evenodd;fill:#F3F3F3;" width="7.425" height="4.5"/>
					<rect x="963.031" y="365.318" style="fill-rule:evenodd;clip-rule:evenodd;fill:#F3F3F3;" width="7.425" height="4.5"/>
				</g>
			</g>
			<g>
				<g>
					<g>
						<rect x="1000" y="344.412" style="fill:none;" width="40" height="44.995"/>
					</g>
					<rect x="1029.62" y="365.318" style="fill-rule:evenodd;clip-rule:evenodd;fill:#F3F3F3;" width="7.425" height="4.5"/>
					<rect x="1016.304" y="365.318" style="fill-rule:evenodd;clip-rule:evenodd;fill:#F3F3F3;" width="7.425" height="4.5"/>
					<rect x="1003.031" y="365.318" style="fill-rule:evenodd;clip-rule:evenodd;fill:#F3F3F3;" width="7.425" height="4.5"/>
				</g>
			</g>
			<g>
				<g>
					<g>
						<rect x="1040" y="344.412" style="fill:none;" width="40" height="44.995"/>
					</g>
					<rect x="1069.62" y="365.318" style="fill-rule:evenodd;clip-rule:evenodd;fill:#F3F3F3;" width="7.425" height="4.5"/>
					<rect x="1056.304" y="365.318" style="fill-rule:evenodd;clip-rule:evenodd;fill:#F3F3F3;" width="7.425" height="4.5"/>
					<rect x="1043.031" y="365.318" style="fill-rule:evenodd;clip-rule:evenodd;fill:#F3F3F3;" width="7.425" height="4.5"/>
				</g>
			</g>
			<g>
				<g>
					<g>
						<rect x="1080" y="344.412" style="fill:none;" width="40" height="44.995"/>
					</g>
					<rect x="1109.62" y="365.318" style="fill-rule:evenodd;clip-rule:evenodd;fill:#F3F3F3;" width="7.425" height="4.5"/>
					<rect x="1096.304" y="365.318" style="fill-rule:evenodd;clip-rule:evenodd;fill:#F3F3F3;" width="7.425" height="4.5"/>
					<rect x="1083.031" y="365.318" style="fill-rule:evenodd;clip-rule:evenodd;fill:#F3F3F3;" width="7.425" height="4.5"/>
				</g>
			</g>
			<g>
				<g>
					<g>
						<rect x="1120" y="344.412" style="fill:none;" width="40" height="44.995"/>
					</g>
					<rect x="1149.62" y="365.318" style="fill-rule:evenodd;clip-rule:evenodd;fill:#F3F3F3;" width="7.425" height="4.5"/>
					<rect x="1136.304" y="365.318" style="fill-rule:evenodd;clip-rule:evenodd;fill:#F3F3F3;" width="7.425" height="4.5"/>
					<rect x="1123.031" y="365.318" style="fill-rule:evenodd;clip-rule:evenodd;fill:#F3F3F3;" width="7.425" height="4.5"/>
				</g>
			</g>
			<g>
				<g>
					<g>
						<rect x="1160" y="344.412" style="fill:none;" width="40" height="44.995"/>
					</g>
					<rect x="1189.62" y="365.318" style="fill-rule:evenodd;clip-rule:evenodd;fill:#F3F3F3;" width="7.425" height="4.5"/>
					<rect x="1176.304" y="365.318" style="fill-rule:evenodd;clip-rule:evenodd;fill:#F3F3F3;" width="7.425" height="4.5"/>
					<rect x="1163.031" y="365.318" style="fill-rule:evenodd;clip-rule:evenodd;fill:#F3F3F3;" width="7.425" height="4.5"/>
				</g>
			</g>
			<g>
				<g>
					<g>
						<rect x="1200" y="344.412" style="fill:none;" width="40" height="44.995"/>
					</g>
					<rect x="1229.62" y="365.318" style="fill-rule:evenodd;clip-rule:evenodd;fill:#F3F3F3;" width="7.425" height="4.5"/>
					<rect x="1216.304" y="365.318" style="fill-rule:evenodd;clip-rule:evenodd;fill:#F3F3F3;" width="7.425" height="4.5"/>
					<rect x="1203.031" y="365.318" style="fill-rule:evenodd;clip-rule:evenodd;fill:#F3F3F3;" width="7.425" height="4.5"/>
				</g>
			</g>
			<g>
				<g>
					<g>
						<rect x="1240" y="344.412" style="fill:none;" width="40" height="44.995"/>
					</g>
					<rect x="1269.62" y="365.318" style="fill-rule:evenodd;clip-rule:evenodd;fill:#F3F3F3;" width="7.425" height="4.5"/>
					<rect x="1256.304" y="365.318" style="fill-rule:evenodd;clip-rule:evenodd;fill:#F3F3F3;" width="7.425" height="4.5"/>
					<rect x="1243.031" y="365.318" style="fill-rule:evenodd;clip-rule:evenodd;fill:#F3F3F3;" width="7.425" height="4.5"/>
				</g>
			</g>
		</g>
	</g>
</g>
<g>
	<path style="fill:#FFFFFF;" d="M151.669,301.747c0,0,2.854-5.714-2.262-8.758c0,0-50.956-2.074-49.32,9.057
		c0,0-1.546,6.327,7.074,5.451L151.669,301.747z"/>
	<g>
		<path style="fill:#FFFFFF;" d="M174.697,284.743c0,0-9.125,1.786-3.769,4.959l5.158-2.48
			C176.085,287.223,177.43,283.962,174.697,284.743z"/>
		<path style="fill:#FFFFFF;" d="M192.549,276.597v10.198C192.549,286.795,198.302,282.429,192.549,276.597z"/>
		<circle style="fill:#FFFFFF;" cx="106.461" cy="342.863" r="16.663"/>
		<circle style="fill:#12337C;" cx="105.667" cy="343.061" r="12.695"/>
		<path style="fill:#FFFFFF;" d="M176.416,283.751c0,0,1.851,0.474,1.455,3.411h2.182c0,0,9.323,31.897,0,42.609
			c0,0-14.878,18.051-38.086,4.166c0,0-13.885-10.513,8.926-26.779c0,0,1.785-1.388,0.595-3.174l-48.202,5.554
			c0,0-22.216,13.885-18.646,26.184c0,0,17.455,7.934,43.044,6.149c0,0,35.705,20.828,59.508-8.331c0,0-3.967,11.505,0,9.521
			c0,0,13.289-22.811,33.126-7.537c0,0,3.57,4.364,1.785-3.372c0,0-6.082-15.011-24.597-8.133c0,0-1.587-18.249-11.307-35.11
			c0,0-0.794-4.76,4.364-2.777l-0.198-9.72c0,0-3.174-2.022-6.744,4.364L176.416,283.751z"/>
		<circle style="fill:#FFFFFF;" cx="205.145" cy="343.061" r="16.663"/>
		<circle style="fill:#12337C;" cx="205.145" cy="342.863" r="12.695"/>
		<circle style="fill:#FFFFFF;" cx="205.145" cy="343.358" r="8.629"/>
		<circle style="fill:#FFFFFF;" cx="106.163" cy="343.358" r="8.629"/>
		<path style="fill:none;stroke:#12337C;stroke-width:3;stroke-miterlimit:10;" d="M95.167,322.454
			c1.715-2.483,3.811-4.669,6.446-6.387c6-3.912,13.174-5.97,20.32-4.665c0,0,11.703,1.308,13.092,13.608
			c0,0,1.19,13.292-7.538,12.895c0,0-40.859,3.17-35.904-8.728C92.575,326.795,93.739,324.521,95.167,322.454z"/>
	</g>
</g>
</svg>
