<?xml version="1.0" encoding="utf-8"?>
<!-- Generator: Adobe Illustrator 18.0.0, SVG Export Plug-In . SVG Version: 6.00 Build 0)  -->
<!DOCTYPE svg PUBLIC "-//W3C//DTD SVG 1.1//EN" "http://www.w3.org/Graphics/SVG/1.1/DTD/svg11.dtd">
<svg version="1.1" id="圖層_1" xmlns="http://www.w3.org/2000/svg" xmlns:xlink="http://www.w3.org/1999/xlink" x="0px" y="0px"
	 viewBox="0 0 147.8 92.2" enable-background="new 0 0 147.8 92.2" xml:space="preserve">
<g>
	<path fill="#FFFFFF" d="M72.4,30.1c0,0,2.9-5.7-2.3-8.8c0,0-51-2.1-49.3,9.1c0,0-1.5,6.3,7.1,5.5L72.4,30.1z"/>
	<g>
		<path fill="#FFFFFF" d="M95.4,13.1c0,0-9.1,1.8-3.8,5l5.2-2.5C96.8,15.6,98.1,12.3,95.4,13.1z"/>
		<path fill="#FFFFFF" d="M113.2,4.9v10.2C113.2,15.1,119,10.8,113.2,4.9z"/>
		<circle fill="#FFFFFF" cx="27.2" cy="71.2" r="16.7"/>
		<circle fill="#12337C" cx="26.4" cy="71.4" r="12.7"/>
		<path fill="#FFFFFF" d="M97.1,12.1c0,0,1.9,0.5,1.5,3.4h2.2c0,0,9.3,31.9,0,42.6c0,0-14.9,18.1-38.1,4.2c0,0-13.9-10.5,8.9-26.8
			c0,0,1.8-1.4,0.6-3.2L24,37.9c0,0-22.2,13.9-18.6,26.2c0,0,17.5,7.9,43,6.1c0,0,35.7,20.8,59.5-8.3c0,0-4,11.5,0,9.5
			c0,0,13.3-22.8,33.1-7.5c0,0,3.6,4.4,1.8-3.4c0,0-6.1-15-24.6-8.1c0,0-1.6-18.2-11.3-35.1c0,0-0.8-4.8,4.4-2.8l-0.2-9.7
			c0,0-3.2-2-6.7,4.4L97.1,12.1z"/>
		<circle fill="#FFFFFF" cx="125.8" cy="71.4" r="16.7"/>
		<circle fill="#12337C" cx="125.8" cy="71.2" r="12.7"/>
		<circle fill="#FFFFFF" cx="125.8" cy="71.7" r="8.6"/>
		<circle fill="#FFFFFF" cx="26.9" cy="71.7" r="8.6"/>
		<path fill="none" stroke="#12337C" stroke-width="3" stroke-miterlimit="10" d="M15.9,50.8c1.7-2.5,3.8-4.7,6.4-6.4
			c6-3.9,13.2-6,20.3-4.7c0,0,11.7,1.3,13.1,13.6c0,0,1.2,13.3-7.5,12.9c0,0-40.9,3.2-35.9-8.7C13.3,55.1,14.4,52.9,15.9,50.8z"/>
	</g>
</g>
</svg>
