<?xml version="1.0" encoding="utf-8"?>
<!-- Generator: Adobe Illustrator 18.0.0, SVG Export Plug-In . SVG Version: 6.00 Build 0)  -->
<!DOCTYPE svg PUBLIC "-//W3C//DTD SVG 1.1//EN" "http://www.w3.org/Graphics/SVG/1.1/DTD/svg11.dtd">
<svg version="1.1" id="圖層_1" xmlns="http://www.w3.org/2000/svg" xmlns:xlink="http://www.w3.org/1999/xlink" x="0px" y="0px"
	 viewBox="0 0 128.7 82.6" enable-background="new 0 0 128.7 82.6" xml:space="preserve">
<g>
	<path fill="#12337C" d="M63,27.4c0,0,2.4-4.9-1.9-7.4c0,0-43.3-1.8-41.9,7.7c0,0-1.3,5.4,6,4.6L63,27.4z"/>
	<path fill="#12337C" d="M82.6,13c0,0-7.8,1.5-3.2,4.2l4.4-2.1C83.8,15.1,84.9,12.3,82.6,13z"/>
	<path fill="#12337C" d="M97.7,6v8.7C97.7,14.7,102.6,11,97.7,6z"/>
	<circle fill="#12337C" cx="24.6" cy="62.4" r="14.2"/>
	<circle fill="#B3EFFF" cx="23.9" cy="62.5" r="10.8"/>
	<path fill="#12337C" d="M84,12.1c0,0,1.6,0.4,1.2,2.9h1.9c0,0,7.9,27.1,0,36.2c0,0-12.6,15.3-32.4,3.5c0,0-11.8-8.9,7.6-22.8
		c0,0,1.5-1.2,0.5-2.7l-41,4.7C21.9,34,3,45.8,6,56.3c0,0,14.8,6.7,36.6,5.2c0,0,30.3,17.7,50.6-7.1c0,0-3.4,9.8,0,8.1
		c0,0,11.3-19.4,28.2-6.4c0,0,3,3.7,1.5-2.9c0,0-5.2-12.8-20.9-6.9c0,0-1.3-15.5-9.6-29.8c0,0-0.7-4,3.7-2.4l-0.2-8.3
		c0,0-2.7-1.7-5.7,3.7L84,12.1z"/>
	<circle fill="#12337C" cx="108.5" cy="62.5" r="14.2"/>
	<circle fill="#B3EFFF" cx="108.5" cy="62.4" r="10.8"/>
	<circle fill="#12337C" cx="108.5" cy="62.8" r="7.3"/>
	<circle fill="#12337C" cx="24.3" cy="62.8" r="7.3"/>
	<path fill="#12337C" stroke="#B3EFFF" stroke-width="3" stroke-miterlimit="10" d="M15,45c1.5-2.1,3.2-4,5.5-5.4
		c5.1-3.3,11.2-5.1,17.3-4c0,0,9.9,1.1,11.1,11.6c0,0,1,11.3-6.4,11c0,0-34.7,2.7-30.5-7.4C12.8,48.7,13.8,46.8,15,45z"/>
</g>
</svg>
