<?xml version="1.0" encoding="utf-8"?>
<!-- Generator: Adobe Illustrator 18.0.0, SVG Export Plug-In . SVG Version: 6.00 Build 0)  -->
<!DOCTYPE svg PUBLIC "-//W3C//DTD SVG 1.1//EN" "http://www.w3.org/Graphics/SVG/1.1/DTD/svg11.dtd">
<svg version="1.1" id="圖層_1" xmlns="http://www.w3.org/2000/svg" xmlns:xlink="http://www.w3.org/1999/xlink" x="0px" y="0px"
	 viewBox="0 0 1280 800" enable-background="new 0 0 1280 800" xml:space="preserve">
<polygon fill="#B3EFFF" points="1280,800.7 0,800.7 0,512.5 0,0.7 1280,0.7 "/>
<path fill="#FFFFFF" d="M727.8,161.1c0,0,2-20.2,15.4-11.9c0,0,9.9-20.1,19.9-3c0,0,12.4,4,10.4,14.9H727.8z"/>
<rect x="387.1" y="417" fill="#2E5872" width="7.9" height="7.2"/>
<polygon fill="#0D3559" points="0,363.3 62,363.3 62,417 73,417 73,402.9 83,402.9 83,387.1 93,386.2 93,399.5 105,399.5 105,417 
	123,417 123,435 150,435 150,447 195,441 195,422.8 251,422.8 251,449.8 275.8,443.6 275.8,402.9 286,402.9 286,324.6 299,324.6 
	299,266.6 326,266.6 326,393.5 348.8,393.5 352.2,353.2 361.2,353.2 361.2,342.6 391,342.6 391,353.2 409.1,353.2 409.1,426.1 
	409.1,403 428.1,386 428.1,271 452.1,226.2 453.6,342.6 482.2,342.6 482.2,278 534.7,278 548.1,292.1 546.9,311.6 611,311.6 
	611,289 704.3,288.9 706.3,274 720.9,259.1 720.9,311.6 767,311.6 767.7,324.6 874,327.9 874,402.9 921.5,402.9 921.5,375.9 
	939,377 939,278 956,276 956,210.1 963,181.1 981,179.2 993,210.1 993,365.2 1020,366 1020,314.7 1029,314.7 1029,300 1072,299 
	1072,311.6 1087,311.6 1087,407 1105,407 1105,241.9 1134,225.1 1134,205.4 1147,187.8 1147,121.4 1152,118.7 1152,179.2 
	1162,167.4 1162,229.6 1171,231.8 1171,285 1186,285 1186,271 1214,272 1214,284 1261,283 1261,292.1 1272,292.1 1272,315.8 
	1280,314.7 1280,651 0,632 "/>
<path opacity="0.8" fill="#DCF9F3" d="M0,469c0,0,94.8-15,135.1,12c0,0,49.4-18.3,61.5-16.2c0,0,65.5,0.2,83.7,4.2
	c6.3,1.4,26.5-14.9,32-18.2c12.1-7.1,24.4-14.2,37.2-19.9c47.2-21.1,95.8-0.1,142.5,12.6L443,499.8L0,607V469z"/>
<rect x="1253" y="315" fill="#2E5872" width="5.9" height="144.4"/>
<path opacity="0.8" fill="#DCF9F3" d="M1007.8,487.8c0,0,108.2-28.6,127.2-19.6c0,0,25,4,32,10c0,0,59-33.7,86-32.3l27-2.3v171.1
	c0,0-275.3-85.6-272.2-89.6S1007.8,487.8,1007.8,487.8z"/>
<path opacity="0.8" fill="#A9E0D9" d="M0,561.3c0,0,39.5-71.9,75.1-51.5c0.6,0.3,21.9-5.2,24.5-5.2c15,0.2,30.9,1.6,45.5,5.1
	c15,3.6,28.1,7.5,43.1,1.6c23.5-9.2,42.4-27.5,64-40.2c18-10.6,36.9-20.3,56.9-26.4c18.5-5.7,36.8-0.9,54.8-5.6
	c21.3-5.5,37.7-22.3,57.8-30.6c22.5-9.3,47.1-13.8,71.5-12.7c0,0,23.1,1.1,147.9,43c1.2,0.4,9.1-4.7,10.3-5.2
	c9.8-4.4,20-8,30.4-10.6c43.1-10.6,88.7,1,131.9,6.2c37.2,4.5,74.7,8.5,112.2,10c22.1,0.9,42.4-2.7,64.3,2.7
	c28.8,7.1,56.8,17.3,84.6,27.5c12.8,4.7,26.1,8.8,38.7,14.1c11.6,4.9,22.2,13.1,35,14.5c19.8,2.1,129.8-6.9,129.8,26.9
	c0,0,0,36.4,0,36.4H0z"/>
<rect x="820.6" y="342.3" fill="#2E5872" width="33" height="4.9"/>
<rect x="820.6" y="410.4" fill="#2E5872" width="33" height="4.9"/>
<rect x="820.6" y="393.4" fill="#2E5872" width="33" height="4.9"/>
<rect x="820.6" y="376.5" fill="#2E5872" width="33" height="4.9"/>
<rect x="820.6" y="358.2" fill="#2E5872" width="33" height="4.9"/>
<polygon fill="#A59E8E" points="0,557.2 657.9,391.3 1280,557.2 1280,666 0,653 "/>
<path fill="#B3EFFF" d="M662.5,417.4"/>
<polygon fill="#464849" points="0,631.7 657.9,435 1280,648 1280,800 0,800 "/>
<polygon fill="#F9C33D" points="657.9,435 373.6,800 486.6,800 "/>
<polyline fill="#F9C33D" points="791,800 657.9,435 897.6,800.7 "/>
<g>
	<path fill="#F9EB41" d="M457.2,409.7c0,0-16-0.3-17,0.8c0,0-1.8,1.5,0,3.7l18.1-1.4L457.2,409.7z"/>
	<path fill="#F9EB41" d="M525.2,409.1c0,0,16-0.3,17,0.8c0,0,1.8,1.5,0,3.7l-18.1-1.4L525.2,409.1z"/>
	<path stroke="#000000" stroke-miterlimit="10" d="M462.7,402.9v-3c0,0-0.3-3.5-1.2-4c0,0-7.6-7.9-7.6-7.9c-0.4-0.4,0.3-3.5,0.3-4.1
		c0.1-1.5,0.1-2.9-0.3-4.4c-0.8-2.9-3.7-5.3-6.8-5.5c0,0-11.5-2.1-12,5.1c-0.3,4.5,4.4,9,8.6,9.8c2.5,0.5,5.2,0.5,7.7,0.5l5.4,5.4
		c0,0,3.3,1.3,3,5.8l-0.3,2.1v4.1l0.3,1.8l2.8-1.3l1.2-1.3L462.7,402.9z"/>
	<path stroke="#000000" stroke-miterlimit="10" d="M519.3,402.9v-3c0,0,0.3-3.5,1.2-4l7.6-7.9c-0.4-6.3-1.1-12.5,6.8-14
		c0,0,11.5-2.1,12,5.1c0.3,4.5-4.4,9-8.6,9.8c-2.5,0.5-5.2,0.5-7.7,0.5l-5.4,5.4c0,0-3.3,1.3-3,5.8l0.3,2.1v4.1l-0.3,1.8l-2.8-1.3
		l-1.2-1.3L519.3,402.9z"/>
	<path stroke="#000000" stroke-miterlimit="10" d="M456.1,408.9c0,0,33.1-16.8,69.4-1.3c0,0,1.6,4.1-1.6,6.8c0,0-18-0.2-19.8,2.8
		c0,0-3.7,1.2-4.2,6.9c0,0.2,0,0.4-0.1,0.7c-0.3,6.3-15.3,0-15.3,0s2-11.4-23.4-8.9C461,415.8,456.1,414.8,456.1,408.9z"/>
	<path fill="#828282" stroke="#828282" stroke-miterlimit="10" d="M438.4,376.1c0,0,5.9-2.8,11.7,0.7c0,0,2.1,1.8-0.7,2l-11-1.3
		C438.4,377.4,436.2,376.8,438.4,376.1z"/>
	<path fill="#828282" stroke="#828282" stroke-miterlimit="10" d="M543.3,376.1c0,0-5.9-2.8-11.7,0.7c0,0-2.1,1.8,0.7,2l11-1.3
		C543.3,377.4,545.5,376.8,543.3,376.1z"/>
	<path fill="#828282" stroke="#828282" stroke-miterlimit="10" d="M465.8,407.4c0,0,20.4-9.9,50.1-1.5
		C515.9,405.9,477.7,402.3,465.8,407.4z"/>
	<path fill="#F9EB41" d="M456.1,478.9c-0.2,0,0.2-5.9,0.2-6.1c0.4-5.1,1-10.1,1.8-15.1c1-6,2.4-11.9,4.9-17.4
		c2.3-5,5.2-10.5,9.3-14.3c3.8-3.5,9.1-4.3,14-4.3c5,0,10.2-0.6,15.1,0.3c2.9,0.5,5.9,1.6,8.4,3.2c3.4,2.1,6.1,4.9,8.2,8.4
		c2.8,4.7,4.8,10,6.4,15.2c2.5,8,3.3,16.4,4,24.8c0.1,1.2,0.2,2.3,0.3,3.5C528.6,476.9,508.1,482.5,456.1,478.9z"/>
	<path fill="#8E8D8D" d="M456.1,475c0,0-1.1,9.8-0.1,17.7c0.3,3.6,0.8,7.1,1.2,10.6c0.5,4.3,1.3,8.6,2.2,12.9
		c1.1,5.2,2,10.5,5.7,14.6c3.4,3.8,8.2,6.2,12.8,8.2c4.4,1.9,9,3.4,13.9,3.6c2.7,0.1,5.4-0.2,8-0.8c5.6-1.4,11.2-5,15.3-9
		c4-3.8,7.5-8.2,8.9-13.7c0.7-2.8,1.1-5.8,1.7-8.7c1.6-8.4,2.8-17,3.1-25.5c0-0.9,0.1-10.4-0.4-10.4
		C528.4,474.4,456.1,475,456.1,475z"/>
	<ellipse stroke="#000000" stroke-miterlimit="10" cx="492" cy="510.9" rx="26.5" ry="24.5"/>
	<path fill="#C0C7C9" d="M516.8,475c0,3.3-2.7,6-6,6h-36.6c-3.3,0-6-2.7-6-6l0,0c0-3.3,2.7-6,6-6h36.6
		C514.1,469,516.8,471.7,516.8,475L516.8,475z"/>
	<path fill="#2D2D2D" d="M515,474.7c0,1.7-2.4,3.1-5.4,3.1h-33.2c-3,0-5.4-1.4-5.4-3.1l0,0c0-1.7,2.4-3.1,5.4-3.1h33.2
		C512.5,471.6,515,473,515,474.7L515,474.7z"/>
	<path fill="#C0C7C9" d="M490,495.3c0,0,2.6-9.5,5.2,0C495.2,495.3,493.6,497.2,490,495.3z"/>
	<path fill="#F9EB41" d="M486.6,501v-3.2c0,0,6.4-7,12,0v3.2C498.5,501,491.3,504.6,486.6,501z"/>
	<path fill="#C0C7C9" d="M485.6,505c0,0-15.3,18.5,0,18.7V505z"/>
	<path fill="#2D2D2D" stroke="#353434" stroke-miterlimit="10" d="M500.9,571.7c0,3.5-3.2,6.4-7.2,6.4h-2.5c-4,0-7.2-2.9-7.2-6.4
		v-60.4c0-3.5,3.2-6.4,7.2-6.4h2.5c4,0,7.2,2.9,7.2,6.4V571.7z"/>
	<path fill="#F9EB41" d="M479,518.9c0,0,2-13.1,12.5-12.4c1.7,0.1,3.3-0.1,5.2,0.3c4.1,1,6.5,3.4,7.8,7.4c1,3.1,1.8,6.3,2.1,9.6
		c0.4,3.9-0.2,10.6-5.6,8.9c-0.5,4.3-0.3,8.3,0.3,12.6c0-0.2,4.4-1.8,4.8-2c1.6-0.8,3-1.8,3.9-3.4c2.2-4,1.2-9.2,1.1-13.5
		c-0.3-7.6-1.6-15.7-6.8-21.7c-3-3.5-7.6-5.1-12.2-5C492,499.8,477.3,500.5,479,518.9z"/>
</g>
<g>
	<path fill="#C8EF25" d="M768.9,412.8c0,0-16.3-0.3-17.3,0.8c0,0-1.8,1.5,0,3.8L770,416L768.9,412.8z"/>
	<path fill="#C8EF25" d="M838.2,412.1c0,0,16.3-0.3,17.3,0.8c0,0,1.9,1.5,0,3.8l-18.5-1.4L838.2,412.1z"/>
	<path stroke="#000000" stroke-miterlimit="10" d="M774.4,405.9v-3c0,0-0.3-3.5-1.2-4c0,0-7.7-8.1-7.7-8.1c-0.4-0.4,0.3-3.6,0.3-4.2
		c0.1-1.5,0.1-3-0.3-4.5c-0.8-3-3.8-5.4-6.9-5.6c0,0-11.8-2.2-12.3,5.2c-0.3,4.6,4.5,9.2,8.8,10c2.6,0.5,5.3,0.6,7.9,0.6l5.5,5.5
		c0,0,3.4,1.3,3,5.9l-0.3,2.2v4.2l0.3,1.8l2.9-1.3l1.2-1.3L774.4,405.9z"/>
	<path stroke="#000000" stroke-miterlimit="10" d="M832.3,405.9v-3c0,0,0.3-3.5,1.2-4l7.7-8.1c-0.4-6.4-1.2-12.8,6.9-14.3
		c0,0,11.8-2.2,12.3,5.2c0.3,4.6-4.5,9.2-8.8,10c-2.6,0.5-5.3,0.6-7.9,0.6l-5.5,5.5c0,0-3.4,1.3-3,5.9l0.3,2.2v4.2l-0.3,1.8
		l-2.9-1.3l-1.2-1.3L832.3,405.9z"/>
	<path stroke="#000000" stroke-miterlimit="10" d="M767.7,411.9c0,0,33.8-17.2,70.8-1.3c0,0,1.7,4.2-1.7,6.9c0,0-18.3-0.2-20.2,2.9
		c0,0-3.7,1.2-4.3,7c0,0.2,0,0.5-0.1,0.7c-0.3,6.4-15.6,0-15.6,0s2-11.6-23.9-9.1C772.7,419,767.7,418,767.7,411.9z"/>
	<path fill="#828282" stroke="#828282" stroke-miterlimit="10" d="M749.7,378.5c0,0,6.1-2.9,11.9,0.7c0,0,2.2,1.9-0.7,2l-11.3-1.3
		C749.7,379.8,747.4,379.2,749.7,378.5z"/>
	<path fill="#828282" stroke="#828282" stroke-miterlimit="10" d="M856.7,378.5c0,0-6.1-2.9-11.9,0.7c0,0-2.2,1.9,0.7,2l11.3-1.3
		C856.7,379.8,859,379.2,856.7,378.5z"/>
	<path fill="#828282" stroke="#828282" stroke-miterlimit="10" d="M777.6,410.4c0,0,20.9-10.1,51.1-1.5
		C828.7,408.9,789.7,405.2,777.6,410.4z"/>
	<path fill="#C8EF25" d="M767.7,483.4c-0.2,0,0.2-6,0.2-6.3c0.4-5.2,1-10.3,1.8-15.4c1-6.1,2.4-12.1,5-17.8
		c2.3-5.1,5.3-10.7,9.5-14.6c3.9-3.6,9.2-4.4,14.3-4.3c5.1,0,10.4-0.6,15.4,0.3c2.9,0.5,6,1.7,8.5,3.3c3.5,2.2,6.3,5,8.4,8.5
		c2.9,4.8,4.9,10.2,6.5,15.5c2.5,8.2,3.4,16.7,4.1,25.3c0.1,1.2,0.2,2.4,0.3,3.6C841.7,481.4,820.8,487.1,767.7,483.4z"/>
	<path fill="#8E8D8D" d="M767.8,479.4c0,0-1.1,10-0.1,18.1c0.3,3.6,0.8,7.2,1.3,10.8c0.6,4.4,1.3,8.8,2.2,13.2
		c1.1,5.3,2.1,10.8,5.8,14.9c3.5,3.8,8.3,6.3,13,8.4c4.5,2,9.2,3.5,14.1,3.7c2.7,0.1,5.6-0.2,8.2-0.9c5.7-1.4,11.4-5.1,15.6-9.1
		c4.1-3.9,7.7-8.4,9.1-14c0.8-2.9,1.1-6,1.7-8.9c1.7-8.5,2.9-17.3,3.2-26c0-0.9,0.1-10.6-0.4-10.6
		C841.5,478.9,767.8,479.4,767.8,479.4z"/>
	<ellipse stroke="#000000" stroke-miterlimit="10" cx="804.4" cy="516.1" rx="27.1" ry="25"/>
	<path fill="#C0C7C9" d="M829.7,479.4c0,3.4-2.7,6.1-6.1,6.1h-37.3c-3.4,0-6.1-2.7-6.1-6.1l0,0c0-3.4,2.7-6.1,6.1-6.1h37.3
		C827,473.3,829.7,476.1,829.7,479.4L829.7,479.4z"/>
	<path fill="#2D2D2D" d="M827.8,479.1c0,1.7-2.5,3.2-5.6,3.2h-33.9c-3.1,0-5.6-1.4-5.6-3.2l0,0c0-1.7,2.5-3.2,5.6-3.2h33.9
		C825.3,476,827.8,477.4,827.8,479.1L827.8,479.1z"/>
	<path fill="#C0C7C9" d="M802.3,500.2c0,0,2.6-9.7,5.3,0C807.6,500.2,806,502.1,802.3,500.2z"/>
	<path fill="#C8EF25" d="M798.8,506v-3.3c0,0,6.6-7.2,12.2,0v3.3C811,506,803.7,509.6,798.8,506z"/>
	<path fill="#828282" stroke="#828282" stroke-miterlimit="10" d="M797.8,510c0,0-15.6,18.9,0,19V510z"/>
	<path fill="#2D2D2D" stroke="#353434" stroke-miterlimit="10" d="M813.4,578.2c0,3.6-3.3,6.5-7.3,6.5h-2.5c-4,0-7.3-2.9-7.3-6.5
		v-61.6c0-3.6,3.3-6.5,7.3-6.5h2.5c4,0,7.3,2.9,7.3,6.5V578.2z"/>
	<path fill="#C8EF25" d="M791.1,524.3c0,0,2-13.4,12.7-12.6c1.8,0.1,3.4-0.1,5.3,0.3c4.2,1,6.7,3.5,8,7.6c1,3.2,1.8,6.4,2.1,9.7
		c0.4,4-0.2,10.8-5.7,9.1c-0.5,4.4-0.3,8.4,0.3,12.8c0-0.2,4.5-1.8,4.9-2c1.6-0.8,3.1-1.8,4-3.4c2.2-4,1.3-9.4,1.1-13.8
		c-0.3-7.8-1.7-16.1-6.9-22.2c-3.1-3.6-7.8-5.2-12.5-5.1C804.4,504.7,789.3,505.5,791.1,524.3z"/>
</g>
<g>
	<path fill="#FFFFFF" d="M578.5,354.6c0,0-33-0.7-35,1.7c0,0-3.7,3.1,0,7.7l37.4-2.9L578.5,354.6z"/>
	<path fill="#FFFFFF" d="M718.7,353.3c0,0,33-0.7,35,1.7c0,0,3.7,3.1,0,7.7l-37.4-2.9L718.7,353.3z"/>
	<path stroke="#000000" stroke-miterlimit="10" d="M589.7,340.7v-6.1c0,0-0.7-7.1-2.4-8.2c0,0-15.6-16.3-15.6-16.3
		c-0.8-0.8,0.6-7.3,0.7-8.5c0.2-3.1,0.2-6-0.6-9c-1.7-6-7.6-10.9-13.9-11.4c0,0-23.8-4.4-24.8,10.5c-0.6,9.2,9.1,18.6,17.7,20.3
		c5.2,1.1,10.7,1.1,15.9,1.1l11.2,11.2c0,0,6.8,2.7,6.1,11.9l-0.7,4.4v8.5l0.7,3.7l5.8-2.7l2.4-2.7L589.7,340.7z"/>
	<path stroke="#000000" stroke-miterlimit="10" d="M706.6,340.7v-6.1c0,0,0.7-7.1,2.4-8.2l15.6-16.3c-0.8-12.9-2.3-25.9,13.9-28.9
		c0,0,23.8-4.4,24.8,10.5c0.6,9.2-9.1,18.6-17.7,20.3c-5.2,1.1-10.7,1.1-15.9,1.1l-11.2,11.2c0,0-6.8,2.7-6.1,11.9l0.7,4.4v8.5
		l-0.7,3.7l-5.8-2.7l-2.4-2.7L706.6,340.7z"/>
	<path stroke="#000000" stroke-miterlimit="10" d="M576.2,352.9c0,0,68.3-34.7,143.1-2.7c0,0,3.4,8.5-3.4,13.9c0,0-37-0.3-40.8,5.8
		c0,0-7.6,2.5-8.7,14.2c0,0.4-0.1,0.9-0.1,1.4c-0.7,12.9-31.6,0-31.6,0s4.1-23.4-48.2-18.3C586.3,367.2,576.2,365.2,576.2,352.9z"/>
	<path fill="#828282" stroke="#828282" stroke-miterlimit="10" d="M539.8,285.3c0,0,12.2-5.8,24.1,1.4c0,0,4.4,3.7-1.4,4.1
		l-22.8-2.7C539.8,288,535.1,286.8,539.8,285.3z"/>
	<path fill="#828282" stroke="#828282" stroke-miterlimit="10" d="M756,285.3c0,0-12.2-5.8-24.1,1.4c0,0-4.4,3.7,1.4,4.1L756,288
		C756,288,760.7,286.8,756,285.3z"/>
	<path fill="#828282" stroke="#828282" stroke-miterlimit="10" d="M596.2,349.9c0,0,42.1-20.4,103.3-3.1
		C699.5,346.8,620.7,339.3,596.2,349.9z"/>
	<path fill="#FFFFFF" d="M576.2,497.3c-0.4,0,0.4-12.1,0.4-12.7c0.7-10.4,2-20.9,3.7-31.2c2-12.4,4.9-24.5,10.1-35.9
		c4.7-10.4,10.7-21.7,19.2-29.5c7.8-7.2,18.7-8.8,28.9-8.8c10.2,0,21.1-1.2,31.2,0.6c5.9,1,12.1,3.4,17.3,6.6
		c7.1,4.4,12.7,10.1,16.9,17.2c5.8,9.7,9.9,20.6,13.2,31.3c5.1,16.6,6.9,33.8,8.2,51.1c0.2,2.4,0.4,4.8,0.5,7.2
		C725.7,493.3,683.5,504.7,576.2,497.3z"/>
	<path fill="#8E8D8D" d="M576.3,489.3c0,0-2.3,20.3-0.3,36.6c0.6,7.3,1.6,14.6,2.5,21.9c1.1,8.9,2.7,17.8,4.5,26.6
		c2.2,10.7,4.1,21.7,11.8,30.1c7.1,7.7,16.8,12.7,26.3,16.9c9.1,4,18.6,7,28.6,7.4c5.5,0.2,11.2-0.4,16.6-1.7
		c11.6-2.9,23-10.3,31.6-18.5c8.2-7.9,15.5-17,18.4-28.3c1.5-5.8,2.3-12,3.4-18c3.4-17.3,5.8-35,6.4-52.6c0.1-1.8,0.2-21.5-0.8-21.5
		C725.3,488.2,576.3,489.3,576.3,489.3z"/>
	<ellipse stroke="#000000" stroke-miterlimit="10" cx="650.4" cy="563.4" rx="54.7" ry="50.5"/>
	<path fill="#C0C7C9" d="M701.5,489.3c0,6.8-5.5,12.4-12.4,12.4h-75.4c-6.8,0-12.4-5.5-12.4-12.4l0,0c0-6.8,5.5-12.4,12.4-12.4h75.4
		C695.9,477,701.5,482.5,701.5,489.3L701.5,489.3z"/>
	<path fill="#2D2D2D" d="M697.6,488.7c0,3.5-5,6.4-11.2,6.4h-68.5c-6.2,0-11.2-2.9-11.2-6.4l0,0c0-3.5,5-6.4,11.2-6.4h68.5
		C692.6,482.3,697.6,485.2,697.6,488.7L697.6,488.7z"/>
	<path fill="#C0C7C9" d="M646.2,531.2c0,0,5.4-19.6,10.7,0C656.9,531.2,653.5,535.1,646.2,531.2z"/>
	<path fill="#FFFFFF" d="M639,543v-6.6c0,0,13.3-14.5,24.7,0v6.6C663.7,543,648.9,550.4,639,543z"/>
	<path fill="#828282" stroke="#828282" stroke-miterlimit="10" d="M637,551.1c0,0-31.6,38.2,0,38.5V551.1z"/>
	<path fill="#2D2D2D" stroke="#353434" stroke-miterlimit="10" d="M668.6,688.8c0,7.3-6.6,13.2-14.8,13.2h-5.1
		c-8.2,0-14.8-5.9-14.8-13.2V564.3c0-7.3,6.6-13.2,14.8-13.2h5.1c8.2,0,14.8,5.9,14.8,13.2V688.8z"/>
	<path fill="#FFFFFF" d="M623.5,579.9c0,0,4.1-27,25.7-25.5c3.6,0.3,6.8-0.3,10.6,0.7c8.4,2.1,13.4,7,16.1,15.3
		c2,6.4,3.6,13,4.3,19.7c0.7,8-0.5,21.8-11.5,18.4c-1.1,8.9-0.5,17,0.7,25.9c0-0.3,9-3.6,9.9-4c3.3-1.6,6.2-3.7,8.1-7
		c4.5-8.2,2.5-19.1,2.2-27.9c-0.5-15.7-3.4-32.5-13.9-44.8c-6.3-7.3-15.7-10.5-25.2-10.4C650.4,540.4,619.9,541.9,623.5,579.9z"/>
</g>
<path fill="#FFFFFF" d="M149.6,185.3c0,0,2.7-27.8,21.1-16.4c0,0,13.6-27.6,27.3-4.1c0,0,17.1,5.5,14.3,20.5H149.6z"/>
<rect x="45.1" y="423.9" fill="#2E5872" width="7.9" height="7.2"/>
<rect x="45.1" y="372.5" fill="#2E5872" width="7.9" height="7.2"/>
<rect x="45.1" y="406.5" fill="#2E5872" width="7.9" height="7.2"/>
<rect x="45.1" y="387.7" fill="#2E5872" width="7.9" height="7.2"/>
<rect x="387.1" y="365.7" fill="#2E5872" width="7.9" height="7.2"/>
<rect x="387.1" y="399.6" fill="#2E5872" width="7.9" height="7.2"/>
<rect x="387.1" y="380.9" fill="#2E5872" width="7.9" height="7.2"/>
<rect x="361.3" y="416.1" fill="#2E5872" width="7.9" height="7.2"/>
<rect x="361.2" y="364.8" fill="#2E5872" width="7.9" height="7.2"/>
<rect x="361.3" y="398.7" fill="#2E5872" width="7.9" height="7.2"/>
<rect x="361.2" y="380" fill="#2E5872" width="7.9" height="7.2"/>
<rect x="1063.1" y="370.9" fill="#2E5872" width="7.9" height="7.2"/>
<rect x="1063.1" y="319.5" fill="#2E5872" width="7.9" height="7.2"/>
<rect x="1063.1" y="353.5" fill="#2E5872" width="7.9" height="7.2"/>
<rect x="1063.1" y="334.7" fill="#2E5872" width="7.9" height="7.2"/>
<rect x="1039.1" y="369.7" fill="#2E5872" width="7.9" height="7.2"/>
<rect x="1039.1" y="318.4" fill="#2E5872" width="7.9" height="7.2"/>
<rect x="1039.1" y="352.3" fill="#2E5872" width="7.9" height="7.2"/>
<rect x="1039.1" y="333.6" fill="#2E5872" width="7.9" height="7.2"/>
<rect x="1063.1" y="442.7" fill="#2E5872" width="7.9" height="7.2"/>
<rect x="1063" y="391.3" fill="#2E5872" width="7.9" height="7.2"/>
<rect x="1063.1" y="425.3" fill="#2E5872" width="7.9" height="7.2"/>
<rect x="1063" y="406.5" fill="#2E5872" width="7.9" height="7.2"/>
<rect x="1039.1" y="442.7" fill="#2E5872" width="7.9" height="7.2"/>
<rect x="1039" y="391.3" fill="#2E5872" width="7.9" height="7.2"/>
<rect x="1039.1" y="425.3" fill="#2E5872" width="7.9" height="7.2"/>
<rect x="1039" y="406.5" fill="#2E5872" width="7.9" height="7.2"/>
<rect x="975" y="371" fill="#2E5872" width="7.9" height="7.2"/>
<rect x="974.9" y="319.7" fill="#2E5872" width="7.9" height="7.2"/>
<rect x="975" y="353.6" fill="#2E5872" width="7.9" height="7.2"/>
<rect x="974.9" y="334.8" fill="#2E5872" width="7.9" height="7.2"/>
<rect x="1418.1" y="449.7" fill="#2E5872" width="7.9" height="7.2"/>
<rect x="974.9" y="391.5" fill="#2E5872" width="7.9" height="7.2"/>
<rect x="975" y="423.4" fill="#2E5872" width="7.9" height="7.2"/>
<rect x="974.9" y="406.7" fill="#2E5872" width="7.9" height="7.2"/>
<rect x="1130" y="241.1" fill="#2E5872" width="33" height="4.9"/>
<rect x="234.1" y="428.7" fill="#2E5872" width="7.9" height="31.1"/>
<rect x="312.1" y="275.3" fill="#2E5872" width="5.9" height="144.4"/>
<rect x="1130" y="309.1" fill="#2E5872" width="33" height="4.9"/>
<rect x="1130" y="292.1" fill="#2E5872" width="33" height="4.9"/>
<rect x="1130" y="275.3" fill="#2E5872" width="33" height="4.9"/>
<rect x="1130" y="257" fill="#2E5872" width="33" height="4.9"/>
<rect x="1130" y="325.3" fill="#2E5872" width="33" height="4.9"/>
<rect x="1130" y="393.4" fill="#2E5872" width="33" height="4.9"/>
<rect x="1130" y="376.4" fill="#2E5872" width="33" height="4.9"/>
<rect x="1130" y="359.5" fill="#2E5872" width="33" height="4.9"/>
<rect x="1130" y="341.2" fill="#2E5872" width="33" height="4.9"/>
<rect x="494.9" y="290.8" fill="#2E5872" width="33" height="4.9"/>
<rect x="494.9" y="306.7" fill="#2E5872" width="33" height="4.9"/>
<rect x="1213" y="352.7" fill="#2E5872" width="7.9" height="7.2"/>
<rect x="1212.9" y="301.4" fill="#2E5872" width="7.9" height="7.2"/>
<rect x="1213" y="335.3" fill="#2E5872" width="7.9" height="7.2"/>
<rect x="1212.9" y="316.6" fill="#2E5872" width="7.9" height="7.2"/>
<rect x="1187.2" y="351.8" fill="#2E5872" width="7.9" height="7.2"/>
<rect x="1187.1" y="300.5" fill="#2E5872" width="7.9" height="7.2"/>
<rect x="1187.2" y="334.4" fill="#2E5872" width="7.9" height="7.2"/>
<rect x="1187.1" y="315.7" fill="#2E5872" width="7.9" height="7.2"/>
<rect x="1213" y="428.4" fill="#2E5872" width="7.9" height="7.2"/>
<rect x="1212.9" y="377.1" fill="#2E5872" width="7.9" height="7.2"/>
<rect x="1213" y="411.1" fill="#2E5872" width="7.9" height="7.2"/>
<rect x="1212.9" y="392.3" fill="#2E5872" width="7.9" height="7.2"/>
<rect x="1187.2" y="427.5" fill="#2E5872" width="7.9" height="7.2"/>
<rect x="1187.1" y="376.2" fill="#2E5872" width="7.9" height="7.2"/>
<rect x="1187.2" y="410.1" fill="#2E5872" width="7.9" height="7.2"/>
<rect x="1187.1" y="391.4" fill="#2E5872" width="7.9" height="7.2"/>
<rect x="99.9" y="430.9" fill="#2E5872" width="7.9" height="7.2"/>
<rect x="99.9" y="446.1" fill="#2E5872" width="7.9" height="7.2"/>
<rect x="74.1" y="430" fill="#2E5872" width="7.9" height="7.2"/>
<rect x="74.1" y="445.2" fill="#2E5872" width="7.9" height="7.2"/>
<rect x="652.8" y="299" fill="#2E5872" width="7.9" height="7.2"/>
<rect x="652.8" y="314.2" fill="#2E5872" width="7.9" height="7.2"/>
<rect x="626.9" y="298.1" fill="#2E5872" width="7.9" height="7.2"/>
<rect x="626.9" y="313.2" fill="#2E5872" width="7.9" height="7.2"/>
<rect x="704.2" y="299" fill="#2E5872" width="7.9" height="7.2"/>
<rect x="704.2" y="314.2" fill="#2E5872" width="7.9" height="7.2"/>
<rect x="678.4" y="298.1" fill="#2E5872" width="7.9" height="7.2"/>
<rect x="678.4" y="313.2" fill="#2E5872" width="7.9" height="7.2"/>
<rect x="949.1" y="287.3" fill="#2E5872" width="5.9" height="91.7"/>
<rect x="434.5" y="275.6" fill="#2E5872" width="5.9" height="82.7"/>
<rect x="494.1" y="341.4" fill="#2E5872" width="33" height="4.9"/>
<rect x="494.9" y="324.3" fill="#2E5872" width="33" height="4.9"/>
<path fill="#FFFFFF" d="M307.3,350c0,0,1.7-17.6,13.4-10.4c0,0,8.7-17.5,17.3-2.6c0,0,10.8,3.5,9.1,13H307.3z"/>
<path fill="#FFFFFF" d="M470.8,260c0,0,1.7-17.6,13.4-10.4c0,0,8.7-17.5,17.3-2.6c0,0,10.8,3.5,9.1,13H470.8z"/>
<path fill="#FFFFFF" d="M908.3,327.4c0,0,2-20.2,15.4-11.9c0,0,9.9-20.1,19.9-3c0,0,12.4,4,10.4,14.9H908.3z"/>
<path fill="#FFFFFF" d="M1029.1,207.1c0,0,2-20.2,15.4-11.9c0,0,9.9-20.1,19.9-3c0,0,12.4,4,10.4,14.9H1029.1z"/>
<path fill="#FFFFFF" d="M1096.3,295.3c0,0,1.5-14.9,11.4-8.8c0,0,7.3-14.8,14.7-2.2c0,0,9.2,2.9,7.7,11H1096.3z"/>
<path fill="#FFFFFF" d="M74.2,341.9c0,0,2-20.2,15.4-11.9c0,0,9.9-20.1,19.9-3c0,0,12.4,4,10.4,14.9H74.2z"/>
<path fill="#FFFFFF" d="M346.1,100.8c0,0-15.2-32.3,21.3-30.3c0,0,11.6-33,50.5-15.7c0,0,47.1-34.6,61,17.7c0,0,14.9-17.7,29.7-3.2
	c0,0,21.1-37.6,55.5-6.8c0,0,10.3-9.9,19.1-2.4c0,0,29.4-15.2,33.1,16.4c0,0,30.7-0.8,20.9,26.3c0,0,18.6,12,7.4,25.7
	c0,0,14.5,2.5,9,14.2c0,0,21.2,9,1.9,20.1c0,0-13.5,14.8-31.1,0.8c0,0-11.5,36.8-48.5,17.6c0,0-23.3,26.5-47.1-2.6
	c0,0-30.6,5.6-30.1-13.6c0,0-7.1,21.3-23.8,7.3c0,0-11.6,34.7-39.7,23c0,0-28.2,22-52-4.3c0,0-49.7,9.9-57.3-23.5
	c0,0-5.6-30.3,20-41.7C345.8,126,321.5,115.9,346.1,100.8"/>
<path fill="#CED7DB" d="M457.6,69.6c0.2,6.6-5.1,12.1-11.7,12.3c-6.6,0.2-12.1-5.1-12.3-11.7c-0.2-6.6,5.1-12.1,11.7-12.3
	C452,57.7,457.5,63,457.6,69.6"/>
<path fill="#8E8D8D" d="M405.7,66.1c0.1,4-3,7.3-7,7.4c-4,0.1-7.3-3-7.4-7c-0.1-4,3-7.3,7-7.4C402.3,59,405.6,62.2,405.7,66.1"/>
<path fill="#8E8D8D" d="M335.7,143.1c0.1,4-3,7.3-7,7.4c-4,0.1-7.3-3-7.4-7c-0.1-4,3-7.3,7-7.4C332.3,136,335.6,139.1,335.7,143.1"
	/>
<path fill="#8E8D8D" d="M426.1,185.2c0.1,4.8-3.6,8.7-8.4,8.9c-4.8,0.1-8.7-3.6-8.9-8.4c-0.1-4.8,3.6-8.7,8.4-8.9
	C422,176.6,426,180.4,426.1,185.2"/>
<path fill="#FFFFFF" d="M562.9,145.7c0,0-14.6-32.1,20.3-30.1c0,0,11.1-32.7,48.2-15.6c0,0,45-34.4,58.3,17.7
	c0,0,14.2-17.5,28.4-3.2c0,0,20.1-37.3,53.1-6.7c0,0,9.8-9.8,18.3-2.4c0,0,28.1-15,31.6,16.4c0,0,29.3-0.8,20,26.2
	c0,0,17.7,11.9,7.1,25.6c0,0,13.8,2.5,8.6,14.1c0,0,20.3,9,1.8,20c0,0-12.8,14.6-29.7,0.8c0,0-11,36.6-46.4,17.4
	c0,0-22.3,26.3-45-2.6c0,0-29.2,5.5-28.8-13.6c0,0-6.8,21.2-22.8,7.3c0,0-11,34.4-38,22.8c0,0-27,21.8-49.7-4.3
	c0,0-47.5,9.8-54.8-23.4c0,0-5.4-30.1,19.1-41.4C562.7,170.6,539.5,160.6,562.9,145.7"/>
<path fill="#CED7DB" d="M452.9,180.1c0.1,2.4-1.8,4.4-4.2,4.4c-2.4,0.1-4.4-1.8-4.4-4.2c-0.1-2.4,1.8-4.4,4.2-4.4
	C450.8,175.9,452.8,177.8,452.9,180.1"/>
<path fill="#CED7DB" d="M350.1,181.4c0.2,8-6.1,14.6-14,14.8c-8,0.2-14.6-6.1-14.8-14c-0.2-8,6.1-14.6,14-14.8
	C343.3,167.2,349.9,173.4,350.1,181.4"/>
<path fill="#CED7DB" d="M606.1,74.1c0.1,4.6-3.5,8.5-8.2,8.6c-4.6,0.1-8.5-3.5-8.6-8.2c-0.1-4.6,3.5-8.5,8.2-8.6
	C602.2,65.8,606,69.5,606.1,74.1"/>
<path fill="#CED7DB" d="M608.5,164.4c0.1,2.3-1.8,4.2-4.1,4.3c-2.3,0.1-4.2-1.8-4.3-4.1c-0.1-2.3,1.8-4.2,4.1-4.3
	C606.5,160.3,608.4,162.1,608.5,164.4"/>
<path fill="#FFFFFF" d="M959.6,223.1c0,0,14.1,33.5-21.7,30.5c0,0-12.3,33.5-50,14.7c0,0-47.2,34.2-59.3-19.9
	c0,0-15.1,17.7-29.2,2.5c0,0-21.7,38-54.7,5.4c0,0-10.4,9.8-18.8,1.9c0,0-29.2,14.8-32-17.8c0,0-30.2,0-19.8-27.6
	c0,0-17.9-12.8-6.6-26.6c0,0-14.1-3-8.5-14.8c0,0-20.6-9.9-1.3-20.7c0,0,13.6-14.8,30.5,0c0,0,12.3-37.5,48.1-16.7
	c0,0,23.6-26.6,46.2,4c0,0,30.2-4.9,29.2,14.8c0,0,7.6-21.7,23.6-6.9c0,0,12.3-35.3,39.6-22.5c0,0,28.3-21.8,50.9,5.9
	c0,0,49-8.8,55.6,25.7c0,0,4.7,31.2-20.8,42.2C960.6,197.3,984.2,208.4,959.6,223.1"/>
<path fill="#8E8D8D" d="M969.2,127.8c0.2,6.2-4.8,11.4-11,11.6c-6.2,0.2-11.4-4.7-11.6-11c-0.2-6.2,4.7-11.4,11-11.6
	C963.9,116.7,969.1,121.6,969.2,127.8"/>
<path fill="#CED7DB" d="M990,149.4c0.1,2.4-1.8,4.4-4.2,4.4c-2.4,0.1-4.4-1.8-4.4-4.2c-0.1-2.4,1.8-4.4,4.2-4.4
	C987.9,145.1,989.9,147,990,149.4"/>
<path fill="#CED7DB" d="M812,254.8c0.1,4.5-3.4,8.3-7.9,8.4c-4.5,0.1-8.3-3.4-8.4-7.9c-0.1-4.5,3.4-8.3,7.9-8.4
	C808.2,246.7,811.9,250.3,812,254.8"/>
<path fill="#CED7DB" d="M905.3,115.1c0.2,6.4-4.9,11.7-11.2,11.8c-6.4,0.2-11.6-4.9-11.8-11.2c-0.2-6.4,4.9-11.7,11.2-11.8
	C899.8,103.7,905.1,108.7,905.3,115.1"/>
<path fill="#CED7DB" d="M429.4,230c0.6-3.7,4.1-6.2,7.8-5.5c3.7,0.6,6.2,4.1,5.5,7.8c-0.6,3.7-4.1,6.2-7.8,5.5
	C431.3,237.2,428.8,233.7,429.4,230"/>
<path fill="#8E8D8D" d="M409.3,216.9c0.4-2.2,2.5-3.7,4.7-3.3c2.2,0.4,3.7,2.5,3.3,4.7c-0.4,2.2-2.5,3.7-4.7,3.3
	C410.4,221.2,409,219.1,409.3,216.9"/>
<path fill="#CED7DB" d="M375.6,229.4c1-5.8,6.5-9.7,12.3-8.7c5.8,1,9.7,6.5,8.7,12.3c-1,5.8-6.5,9.7-12.3,8.7
	C378.5,240.6,374.6,235.1,375.6,229.4"/>
<path fill="#8E8D8D" d="M937.9,253.7c0.7-4.2,4.7-7,8.9-6.3c4.2,0.7,7,4.7,6.3,8.9c-0.7,4.2-4.7,7-8.9,6.3
	C940,261.9,937.2,257.9,937.9,253.7"/>
<path fill="#CED7DB" d="M965.3,176.1c0.4-2.2,2.4-3.6,4.6-3.2c2.2,0.4,3.6,2.4,3.2,4.6c-0.4,2.2-2.4,3.6-4.6,3.2
	C966.4,180.3,965,178.2,965.3,176.1"/>
<path fill="#CED7DB" d="M782.3,101.1c1-5.9,6.6-9.9,12.5-8.9c5.9,1,9.9,6.6,8.9,12.5c-1,5.9-6.6,9.9-12.5,8.9
	C785.3,112.6,781.3,107,782.3,101.1"/>
<path fill="#8E8D8D" d="M997,230.9c0.2,6.2-4.8,11.4-11,11.6c-6.2,0.2-11.4-4.8-11.6-11c-0.2-6.2,4.8-11.4,11-11.6
	C991.6,219.7,996.8,224.6,997,230.9"/>
<path fill="#CED7DB" d="M548.9,193.9c0.1,3.7-2.9,6.9-6.6,7c-3.7,0.1-6.9-2.9-7-6.6c-0.1-3.7,2.9-6.9,6.6-7
	C545.7,187.1,548.8,190.1,548.9,193.9"/>
<path fill="#8E8D8D" d="M589,210.6c0.1,3.7-2.9,6.9-6.6,7c-3.7,0.1-6.9-2.9-7-6.6c-0.1-3.7,2.9-6.9,6.6-7
	C585.8,203.9,588.9,206.9,589,210.6"/>
<path fill="#8E8D8D" d="M778.7,88.7c0.1,4.5-3.4,8.2-7.9,8.4c-4.5,0.1-8.2-3.4-8.4-7.9c-0.1-4.5,3.4-8.2,7.9-8.4
	C774.8,80.7,778.6,84.2,778.7,88.7"/>
<path fill="#8E8D8D" d="M836.7,262.6c0.1,2.2-1.7,4.1-4,4.2c-2.2,0.1-4.1-1.7-4.2-4c-0.1-2.2,1.7-4.1,4-4.2
	C834.7,258.5,836.6,260.3,836.7,262.6"/>
<path fill="#CED7DB" d="M616.3,230.8c0.2,7.5-5.7,13.7-13.2,13.9c-7.5,0.2-13.7-5.7-13.9-13.2c-0.2-7.5,5.7-13.7,13.2-13.9
	C609.9,217.4,616.1,223.3,616.3,230.8"/>
<path fill="#CED7DB" d="M981.1,258.4c0.1,4.4-3.3,8-7.7,8.1c-4.4,0.1-8-3.3-8.1-7.7c-0.1-4.4,3.3-8,7.7-8.1
	C977.4,250.6,981,254,981.1,258.4"/>
<path fill="#CED7DB" d="M722.9,88.8c0.1,2.2-1.7,4.1-4,4.2c-2.2,0.1-4.1-1.7-4.2-4c-0.1-2.2,1.7-4.1,4-4.2
	C720.9,84.8,722.8,86.6,722.9,88.8"/>
<path fill="#8E8D8D" d="M832.6,248.4c0.1,2.2-1.7,4-3.9,4.1c-2.2,0.1-4-1.7-4.1-3.9c-0.1-2.2,1.7-4,3.9-4.1
	C830.7,244.5,832.5,246.2,832.6,248.4"/>
<path fill="#0D3559" d="M479.4,161.9c-3.9-2.2-7.8-4.3-12.4-6.8c2.2-2.4,3.7-4,5.2-5.6c16.7,7.6,29.3,1.9,28.6-13.5
	c-1.8,0.8-3.4,1.5-4.9,2.3c-10.2,4.9-22.1,2.7-29.5-5.3c-7.3-7.9-8.5-20.5-2.8-29.8c5.6-9.2,16.9-13.8,27.2-11.1
	c11.2,2.9,18.5,12.2,18.7,23.9c0.1,4.6-0.3,9.3,0.1,13.8c1.3,15.8-4.7,26.8-20.1,32.1H479.4z M501.6,115.7
	c-0.1-9-8.3-16.8-17.2-16.5c-9.2,0.3-16.6,8.2-16.4,17.3c0.2,9.1,8,16.7,17.2,16.5C494.2,132.8,501.7,124.9,501.6,115.7"/>
<path fill="#0D3559" d="M371,161.9c-4.3-2.1-8.5-4.1-13.6-6.6c2.3-2.5,3.8-4.1,5.2-5.7c18,6.9,29.7,1.5,28.9-12.6
	c-5.5,1.2-11.1,3.4-16.7,3.6c-13.9,0.3-24-10.4-24-24.3c0-13.8,10.4-24.6,23.9-24.8c14.2-0.2,25,10.1,25.2,24.1
	c0.1,5-0.3,10.1,0.1,15.1c1.3,15.7-5.1,26.3-20.2,31.2H371z M375.5,133c9-0.1,16.9-8.1,16.9-17c-0.1-8.9-8.2-16.9-17.1-16.8
	c-9,0.1-16.9,8.2-16.8,17.1C358.5,125.3,366.4,133.1,375.5,133"/>
<path fill="#0D3559" d="M539.4,140.7c-14-0.1-24.6-10.8-24.5-24.8c0.1-13.8,10.9-24.5,24.9-24.5c14,0,24.5,10.7,24.4,24.9
	C564.2,130.4,553.6,140.8,539.4,140.7 M556.5,116.2c0.1-9.1-7.7-16.9-16.8-17c-8.9-0.1-17,7.9-17,16.8c-0.1,9,7.8,16.9,16.8,17
	C548.6,133.1,556.5,125.3,556.5,116.2"/>
<path fill="#0D3559" d="M454.5,116.6c-0.1,14.1-10.7,24.3-25,24.1c-13.9-0.2-24.5-11.2-24.3-25.1c0.3-13.8,11.3-24.3,25.2-24.2
	C444.3,91.6,454.6,102.4,454.5,116.6 M446.8,116.3c0.1-9.1-7.6-16.9-16.7-17c-9-0.1-16.9,7.7-17,16.8c-0.1,8.9,7.8,17,16.8,17
	C439,133,446.7,125.4,446.8,116.3"/>
<path fill="#0D3559" d="M610.9,140.7c-14-0.1-24.6-10.9-24.5-24.9c0.2-13.9,11-24.5,25-24.4c13.8,0.1,24.5,10.9,24.4,25
	C635.7,130.4,625,140.8,610.9,140.7 M611,133c9,0.1,17-7.8,17.1-16.8c0.1-9-7.8-17-16.8-17c-8.9-0.1-17,7.9-17,16.8
	C594.1,125,602,132.9,611,133"/>
<path fill="#0D3559" d="M589.3,82.5c3.7,3.4,4.8,6,0.3,9.7c-7.7,6.3-11,15.1-10.9,25c0,7.1,0,14.2,0,21.7h-7.1
	C569.1,113.1,569.7,95.1,589.3,82.5"/>
<path fill="#0D3559" d="M650.3,116.9h0.6c0.6-2.4,1-4.9,1.3-7.5c3,0.9,4.5,1.5,4.5,1.8c0,0.4-0.6,0.7-1.8,0.8
	c-0.6,1.7-1.6,3.4-2.8,5h3c1.1-1.1,1.8-1.7,2.1-1.7c0.3,0.1,0.9,0.4,1.7,0.9c1,0.8,1.6,1.3,1.6,1.6c0,0.2-0.2,0.4-0.6,0.7
	c-0.6,0.4-0.9,0.7-1,0.8v12.3c0.1,4.2,0.1,7.1,0.2,8.5c0,0.7-0.8,1.1-2.4,1.1c-0.7,0-1-0.3-1-0.8v-2.1h-5.4v2.8
	c-0.1,0.7-0.8,1.1-2,1.1c-0.7,0-1.2-0.1-1.4-0.4c0-4.1,0-8.2,0.1-12.2v-8c-0.1-3.4-0.1-5.4-0.3-6L650.3,116.9z M655.7,117.8h-5.4
	v8.8h5.4V117.8z M655.7,127.6h-5.4v9.5h5.4V127.6z M669.3,111.1c0,0.4-0.6,0.6-1.8,0.8c-0.5,1.7-1.1,3.3-1.7,4.7h6.8
	c1-1.3,1.7-1.9,2.1-1.9c0.5,0.1,1.2,0.6,2.1,1.3c0.9,0.8,1.3,1.3,1.3,1.6c0,0.3-0.3,0.6-0.9,0.8c-0.4,0.3-0.7,0.5-0.8,0.7
	c-0.5,10.1-1.2,16.7-2,19.7c-0.7,2.6-2.3,4.1-4.8,4.5c-0.4,0-0.7-0.4-0.9-1.1c-0.3-1-0.9-1.7-1.6-2.1c-1.2-0.6-2.3-1-3.4-1.3
	c0-0.2,0-0.5,0.1-0.8c1.1,0.2,3,0.4,5.5,0.5c1.3-0.1,2-0.7,2-1.8c0.6-1.1,1.3-7.4,1.9-18.8h-7.9c-1.7,3.8-3.6,6.7-5.8,8.6
	c-0.1-0.2-0.2-0.3-0.2-0.4c2.4-4.1,4-9.6,4.9-16.5C667.6,110,669.3,110.6,669.3,111.1 M669.7,129.5c0,1.1-0.2,1.8-0.6,2.3
	c-0.4,0.5-0.9,0.7-1.6,0.7c-0.6,0-1-0.7-1.2-2.3c-0.6-2.8-1.3-5-2.4-6.5l0.6-0.4C667.9,125.6,669.6,127.6,669.7,129.5"/>
<path fill="#0D3559" d="M660.4,157.7c0,0.7-1,1.2-2.9,1.5c7.5,1.5,11.5,3.8,12,7.1c0,1.8-0.4,3.1-1.2,3.8c-0.4,0.9-1.4,1.4-2.9,1.7
	c-2.2,0-3.9-1.9-5-5.5c-0.7-2-2-3.8-4-5.3c-2.5,5.5-5.7,9.9-9.5,13.4h8.3c0.9-1.2,2.1-2.6,3.6-4.2c0.3-0.3,0.5-0.4,0.7-0.4
	c0.4,0.2,0.9,0.5,1.4,0.9c2.9,2.5,4.6,4.1,5,4.7c-0.1,0.8-0.5,1.2-1.1,1.2h-6.4v8.2c1.4-1.4,2.4-2.5,3-3.3c0.5-0.6,1-1.1,1.6-1.5
	c0.5,0.3,1.6,1.2,3,2.7c1.5,1.6,2.5,2.7,3.1,3.5c0,0.6-0.3,1-0.7,1h-10.1v20.1c3.7-0.5,7.3-1.3,10.8-2.1c0.2,0,0.4,0.2,0.4,0.5
	c-5.3,4.8-13.4,9-24.3,12.5c0,0.7-0.1,1.4-0.1,2.3c-0.1,0.6-0.4,0.9-0.9,0.9c-0.6,0-2.2-4.2-4.7-12.6c3.5,0,7-0.2,10.4-0.5v-21h-0.2
	c-3.7,0.1-6.4,0.3-8,0.6c-0.4-1-1-2.1-1.6-3c2.1,0.2,5.3,0.4,9.8,0.4v-8.7h-5.7c-1.3,1-2.7,1.9-3.9,2.7c-0.3-0.6-0.4-0.9-0.6-0.9
	c4.1-5.6,7.3-13.8,9.6-24.6C656.8,155.6,660.4,156.9,660.4,157.7 M648.9,201.2c0,3-1.5,4.5-4.4,4.5c-1.6,0-2.4-0.9-2.5-2.7
	c0-0.4,0.1-1.1,0.3-2.1c0.1-0.6,0.3-1.4,0.4-2.6c0-2.9-0.4-5.1-1.3-6.7c0.1-0.2,0.2-0.4,0.4-0.7
	C646.5,193.7,648.9,197.1,648.9,201.2 M694.7,156.2c0,0.5-0.2,0.8-0.7,1c-1.1,0.4-1.7,1-1.8,1.6v18.5h2.3c2.8-2.7,4.7-4.1,5.5-4.1
	c1.1,0.3,2.4,1,3.8,2.1c2.1,1.5,3.2,2.6,3.3,3.2c0,0.7-0.3,1.3-0.8,1.6c-0.5,0.4-1.1,1-1.7,1.5v29.8c0,5.6-3.3,9-10,10.2
	c-0.9,0-1.3-0.7-1.3-2c-0.6-3-1.4-5-2.5-5.9c-1-0.9-2.4-1.4-4.2-1.5c0-0.8,0.1-1.3,0.1-1.3c0.1,0.1,2.5,0.1,7.3,0.1
	c1,0,1.6-0.5,1.7-1.6c0-2.4-0.1-5-0.1-7.6h-16v17.2c-0.1,1-1.6,1.7-4.6,1.9c-3.1,0-4.7-0.4-4.8-1.1c0.1-1.8,0.3-4.1,0.3-6.9V194
	c-0.4,0.1-1,0.2-1.5,0.2c-1.8,4.2-4.6,7.6-8.5,10.3c-0.5,0-0.7-0.1-0.7-0.3c1.1-3.8,1.9-8.7,2.1-14.9c4.4,1.3,7.3,2.4,8.6,3V186
	c-0.1-4.6-0.2-8.6-0.3-12l8.7,3.3h3.9V158c0-2.1-0.1-3.6-0.4-4.4C690.6,154.4,694.7,155.3,694.7,156.2 M681.1,166.6
	c0,2.4-0.5,4.1-1.4,5.3c-0.6,1-1.9,1.6-4,1.6c-2.3,0-3.4-2-3.4-6.1c0-3.7-1.3-6.7-3.6-9.1l0.7-0.6C676.7,160,680.6,163,681.1,166.6
	 M695.6,179.5h-16v8.4h16V179.5z M695.6,190.2h-16v9.2h16V190.2z M708.2,162.7c0,0.7-1.2,1-3.5,1.1c-2.9,4.9-6.4,8.2-10.7,10
	l-0.7-0.7c1.9-4.4,3.2-9.9,4-16.6C704.6,159.7,708.2,161.8,708.2,162.7"/>
<path fill="#0D3559" d="M740.1,158c-0.1,0.9-1.2,1.4-3.1,1.6c-1,1.9-2.2,3.6-3.6,5.2h33.1c1-1.4,2.5-3.1,4.3-5.2
	c0.3-0.3,0.6-0.5,0.8-0.5c0.5,0.2,1.1,0.6,1.7,1c3.4,3,5.4,4.9,6,5.6c-0.1,0.8-0.5,1.2-1.1,1.2h-22.8v6.8h8.3c1-1.3,2.3-2.8,4-4.7
	c0.3-0.3,0.5-0.5,0.7-0.5c0.4,0.2,1,0.5,1.6,1c3.1,2.7,5,4.5,5.5,5.3c-0.1,0.7-0.5,1.1-1,1.1h-19v6.7h8.2c1-1.3,2.3-2.8,4-4.7
	c0.3-0.3,0.5-0.4,0.7-0.4c0.4,0.1,1,0.4,1.6,0.9c3.1,2.7,5,4.5,5.5,5.3c-0.1,0.7-0.4,1.1-1,1.1h-18.9v7.3h11.8
	c1-1.4,2.5-3.1,4.3-5.2c0.3-0.3,0.6-0.5,0.8-0.5c0.5,0.3,1.1,0.6,1.7,1c3.4,3,5.4,4.9,6,5.7c-0.1,0.7-0.5,1.1-1.1,1.1h-46.5v0.5
	c0,1.6-1.8,2.4-5.5,2.6c-0.8,0-1.5,0-2-0.1l7.5,2.9H764c2.8-2.7,4.6-4.1,5.3-4.1c0.5,0,1.8,0.9,4,2.6c1.8,1.3,2.7,2.1,2.7,2.7
	c0,0.7-0.7,1.6-2.1,2.5v11.8c0,1.2,0,2.4,0.1,3.7c0,1.4-1.7,2.1-5.1,2.2c-2.6,0-4-0.4-4.2-1v-3.8h-31.4v2.8c-0.1,1-1.6,1.7-4.6,1.9
	c-3.1,0-4.7-0.4-4.8-1.2c0.1-1.7,0.3-4,0.3-6.8v-11.6c-0.1-1.9-0.2-3.5-0.3-4.8c-0.7-0.1-1.1-0.4-1.1-0.8c0-1.6,0.1-5.6,0.1-11.8
	v-9.8c-2.5,1.7-5.2,3.3-8.1,4.7c-0.4,0-0.7-0.1-0.9-0.6c7.9-8.3,12.7-16.5,14.4-24.6C736.1,155.9,740.1,157.2,740.1,158 M746.4,167
	h-14.2v6.8h14.2V167z M746.4,175.9h-14.2v6.7h14.2V175.9z M746.4,184.7h-14.2v0.3c0.1,1.9,0.3,4.2,0.4,7h13.8V184.7z M764.7,202.2
	h-31.4v12.1h31.4V202.2z M756.9,158.9c0,2.1-0.5,3.6-1.5,4.4c-0.8,0.9-1.9,1.3-3.4,1.3c-2.4,0-3.6-1.2-3.6-3.6c-0.7-3-2.4-5-5-6.1
	c0.1-0.4,0.3-0.8,0.4-1C752.4,153.9,756.8,155.6,756.9,158.9"/>
<path fill="#0D3559" d="M850.2,156.2c2.2,1.6,3.3,2.9,3.3,3.6c0,0.4-0.1,0.9-0.4,1.3c-0.6,0.5-1.1,1-1.5,1.6v43.7
	c0.1,4.2,0.1,8.4,0.3,12.7c0,1.3-1.7,2.1-5.1,2.3c-2.8,0-4.3-0.4-4.4-1v-4.3h-41.4v3c-0.1,1.2-1.7,1.9-4.9,2.1c-3.3,0-5-0.4-5.1-1.3
	c0.1-1.8,0.2-4.3,0.2-7.4v-40c-0.1-7-0.1-12.9-0.2-17.9l9.3,3.6h40.5c2.8-2.8,4.7-4.3,5.6-4.3C847,154,848.2,154.7,850.2,156.2
	 M842.4,213.8v-53.3h-41.4v42.8c6.2-7.5,10.2-15.2,12.1-22.7c0.3-1,0.5-1.9,0.7-2.8c-5.5,0.1-9,0.3-10.5,0.6c-0.4-1.2-1-2.4-1.4-3.5
	c2.8,0.5,7.6,0.7,14.6,0.7h0.2v-3.7c0-3.8-0.2-7-0.5-9.5c7.8,0.7,11.8,1.7,11.8,3c0,0.4-0.2,0.8-0.5,1.1c-1,0.4-1.6,0.9-1.6,1.3v7.8
	h2c1-1.3,2.6-3.1,4.7-5.5c0.4-0.3,0.7-0.5,1.2-0.7c0.4,0.1,1,0.4,1.7,1c3.8,3.3,5.8,5.4,6,6.1c0,0.7-0.3,1-0.9,1H828
	c0.7,2.8,2.1,5.8,4.1,8.9c2.2,3.1,5.2,5,8.8,5.7c0,0.7-0.1,1.2-0.1,1.5c-1.3,0.4-2.1,1.2-2.5,2.4c-0.6,0.5-1.1,2.4-1.5,5.7
	c-0.5,1.5-1,2.3-1.3,2.3c-1.8-0.6-3.6-3.6-5.5-9c-1.8-5.6-2.9-11.5-3.2-17.5h-1.1v9.3c0.1,10.6,0.2,17.8,0.4,21.5
	c-0.3,1.9-2.5,2.8-6.7,2.8c-2.1,0-3.2-0.5-3.2-1.7c0.1-3.1,0.3-9.3,0.3-18.8c-3.7,5.6-8.9,10.4-15.5,14.4v8.6H842.4z"/>
<path fill="#0D3559" d="M880.9,157c0,0.4-0.2,0.7-0.6,0.9c-1,0.4-1.6,1-1.8,1.6v15.4h0.7c1.5-2.6,2.4-4,2.8-4.3
	c0.2,0,0.4,0.1,0.7,0.1c0.7,0.8,1.6,1.7,2.3,2.7c0.3,0.4,0.5,0.7,0.7,1c3,0.4,7.5,0.7,13.8,0.7h9.2c1-3.7,1.7-7.3,2-10.9h-10.5
	c-7,0.1-11.4,0.4-13.1,0.7c-0.5-1.3-1-2.4-1.4-3.6c2.8,0.6,7.6,0.8,14.6,0.8h3.3c-0.9-0.4-1.5-1.4-1.8-2.8c-0.7-2.4-2.1-4-4.4-4.8
	c0.1-0.1,0.2-0.4,0.4-0.8c1.5-0.1,2.4-0.1,2.9-0.1c3,0,5.4,0.4,7.2,1.2c1.5,0.8,2.3,2,2.3,3.5c-0.1,2.1-1,3.4-2.7,3.9h9.1
	c0.9-1,2.2-2.6,4-4.5c0.3-0.3,0.7-0.4,1-0.6c0.3,0.1,0.7,0.4,1.4,0.9c3.1,2.8,4.8,4.6,5,5.2c0,0.7-0.3,1-0.9,1h-16
	c6.7,2,10,3.3,10,4c0,0.6-1,1-3.1,1.3c-1.5,2.1-4,4-7.5,5.5h7.7c0.9-1,2.2-2.5,4-4.4c0.3-0.3,0.7-0.5,1-0.6c0.3,0.1,0.8,0.4,1.5,0.9
	c3.1,2.8,4.8,4.6,5,5.2c0,0.7-0.3,1-0.8,1h-29.5c-7,0.1-11.3,0.4-13.1,0.7c-0.1-0.4-0.3-0.9-0.4-1.3c-0.1,0.1-0.4,0.1-0.5,0.1h-6.9
	v20.1c2.4-0.6,4.7-1.4,7.3-2.3c0.1,0.4,0.3,0.7,0.4,1c-4,4.7-9.8,8.8-17.5,12.2c-0.1,2.2-0.7,3.6-1.4,3.9c-1,0-1.7-1-2.3-3
	c-1-3.4-2.1-6.5-3.3-9.2c2.6,0,5.3-0.3,8.1-0.7v-21.8c-3.1,0.1-5,0.2-5.7,0.4c-0.6-1.2-1.2-2.2-1.6-3.2c1.4,0.4,3.8,0.6,7.3,0.7
	v-11.8c0-4.1-0.1-7-0.4-8.3C877.1,155.3,880.9,156.1,880.9,157 M895,180.8h20.9c2.7-1.9,4.3-3,5-3c0.4,0,1.7,0.8,3.7,2.4
	c1.6,1.2,2.4,2,2.4,2.5c0,0.7-0.7,1.5-2.1,2.4v10.8c0,1.2,0.1,2.3,0.2,3.4c0,1.3-1.6,2.1-4.7,2.1c-2.4,0-3.8-0.3-4-1v-0.7h-1.1v9.6
	c0,1.6,0.9,2.4,2.8,2.4h1.6c1.6,0,2.6-1.3,3-3.8c0.7-2.2,1.3-4.4,1.8-6.3c0.6,0.3,1,0.4,1.2,0.4c0,2.6-0.1,5.1-0.1,7.5
	c0.3,0.9,0.7,1.4,1.3,1.6c1.7,0.8,2.6,1.8,2.7,3c0,2.5-1.6,4.1-4.5,5c-1.2,0.6-3.3,1-6.2,1.2c-3,0-5.1-0.2-6.6-0.6
	c-3.6-0.3-5.3-3-5.3-8.1v-11.8H907c-4.1,13.5-14.5,20.6-31.1,21.5c-0.1-0.2-0.3-0.5-0.4-0.8c12.9-4.8,20.3-11.7,22.3-20.7h-1.5v1.2
	c0,1-1.4,1.7-4.2,1.8c-2.9,0-4.4-0.4-4.4-1.1c0.1-1.6,0.2-3.7,0.2-6.4v-11.9c-0.1-2.1-0.1-3.8-0.2-5.3L895,180.8z M903.8,168.9
	c0,2.1-0.5,3.6-1.6,4.4c-0.7,0.9-1.9,1.3-3.4,1.3c-1.6,0-2.4-1.1-2.4-3.2c-0.4-2.6-1.6-4.4-3.5-5.3c0.1-0.4,0.3-0.7,0.4-1
	C900.2,165.1,903.6,166.4,903.8,168.9 M916.4,182.9h-20.1v5.9h20.1V182.9z M916.4,191.1h-20.1v6.1h20.1V191.1z"/>
<path fill="#FFFFFF" d="M979.7,104.7c0,0,3.1-32,24.4-18.9c0,0,15.7-31.8,31.4-4.7c0,0,19.6,6.3,16.5,23.6H979.7z"/>
<g>
	<line fill="none" stroke="#FFFFFF" stroke-width="2" stroke-miterlimit="10" x1="1184.7" y1="366.3" x2="1192" y2="402.9"/>
	<line fill="none" stroke="#FFFFFF" stroke-width="2" stroke-miterlimit="10" x1="1176.5" y1="366.3" x2="1160.5" y2="400.1"/>
	<line fill="none" stroke="#FFFFFF" stroke-width="2" stroke-miterlimit="10" x1="1172.5" y1="362.1" x2="1136.1" y2="370.5"/>
	<line fill="none" stroke="#FFFFFF" stroke-width="2" stroke-miterlimit="10" x1="1226.9" y1="349.3" x2="1190.5" y2="357.7"/>
	<line fill="none" stroke="#FFFFFF" stroke-width="2" stroke-miterlimit="10" x1="1172.8" y1="314.8" x2="1180.2" y2="353.5"/>
	<line fill="none" stroke="#FFFFFF" stroke-width="2" stroke-miterlimit="10" x1="1204.7" y1="318.3" x2="1188.7" y2="352.1"/>
	<line fill="none" stroke="#FFFFFF" stroke-width="2" stroke-miterlimit="10" x1="1223" y1="382.2" x2="1191" y2="363"/>
	<line fill="none" stroke="#FFFFFF" stroke-width="2" stroke-miterlimit="10" x1="1174.4" y1="354.4" x2="1142.4" y2="335.2"/>
	<path fill="#CED7DB" d="M1212,362.1c0.5-3.1,3.4-5.1,6.5-4.6c3.1,0.5,5.1,3.4,4.6,6.5c-0.5,3.1-3.4,5.1-6.5,4.6
		C1213.5,368,1211.5,365.1,1212,362.1"/>
	<path fill="#8E8D8D" d="M1199.6,386.1c0.3-1.8,2.1-3.1,3.9-2.7c1.8,0.3,3.1,2.1,2.7,3.9c-0.3,1.8-2.1,3.1-3.9,2.7
		C1200.5,389.7,1199.3,387.9,1199.6,386.1"/>
	<path fill="#CED7DB" d="M1144.6,353.2c0.5-3.1,3.4-5.1,6.5-4.6c3.1,0.5,5.1,3.4,4.6,6.5c-0.5,3.1-3.4,5.1-6.5,4.6
		C1146.1,359.2,1144,356.3,1144.6,353.2"/>
	<path fill="#8E8D8D" d="M1161,333.6c0.3-1.8,2.1-3.1,3.9-2.7c1.8,0.3,3.1,2.1,2.7,3.9c-0.3,1.8-2.1,3.1-3.9,2.7
		C1161.9,337.1,1160.7,335.4,1161,333.6"/>
	<path fill="#CED7DB" d="M1183.8,335.7c-2.8-1.3-4-4.6-2.7-7.4c1.3-2.8,4.6-4,7.4-2.7c2.8,1.3,4,4.6,2.7,7.4
		C1189.9,335.7,1186.6,337,1183.8,335.7"/>
	<path fill="#CED7DB" d="M1174.1,397c-2.8-1.3-4-4.6-2.7-7.4c1.3-2.8,4.6-4,7.4-2.7c2.8,1.3,4,4.6,2.7,7.4
		C1180.3,397.1,1177,398.3,1174.1,397"/>
	<path fill="#8E8D8D" d="M1151,380.7c0.3-1.8,2.1-3.1,3.9-2.7c1.8,0.3,3.1,2.1,2.7,3.9c-0.3,1.8-2.1,3.1-3.9,2.7
		C1151.9,384.2,1150.7,382.5,1151,380.7"/>
	<path fill="#8E8D8D" d="M1207.4,339c0.3-1.8,2.1-3.1,3.9-2.7c1.8,0.3,3.1,2.1,2.7,3.9c-0.3,1.8-2.1,3.1-3.9,2.7
		C1208.4,342.6,1207.1,340.9,1207.4,339"/>
</g>
<g>
	<line fill="none" stroke="#FFFFFF" stroke-width="2" stroke-miterlimit="10" x1="286.2" y1="124" x2="292.6" y2="156"/>
	<line fill="none" stroke="#FFFFFF" stroke-width="2" stroke-miterlimit="10" x1="279.1" y1="124.1" x2="265.1" y2="153.5"/>
	<line fill="none" stroke="#FFFFFF" stroke-width="2" stroke-miterlimit="10" x1="275.6" y1="120.4" x2="243.9" y2="127.7"/>
	<line fill="none" stroke="#FFFFFF" stroke-width="2" stroke-miterlimit="10" x1="323" y1="109.2" x2="291.3" y2="116.5"/>
	<line fill="none" stroke="#FFFFFF" stroke-width="2" stroke-miterlimit="10" x1="275.9" y1="79.1" x2="282.3" y2="112.9"/>
	<line fill="none" stroke="#FFFFFF" stroke-width="2" stroke-miterlimit="10" x1="303.7" y1="82.2" x2="289.8" y2="111.6"/>
	<line fill="none" stroke="#FFFFFF" stroke-width="2" stroke-miterlimit="10" x1="319.7" y1="137.9" x2="291.7" y2="121.2"/>
	<line fill="none" stroke="#FFFFFF" stroke-width="2" stroke-miterlimit="10" x1="277.3" y1="113.6" x2="249.3" y2="96.9"/>
	<path fill="#CED7DB" d="M310.1,120.4c0.5-2.7,3-4.4,5.6-4c2.7,0.5,4.4,3,4,5.6c-0.5,2.7-3,4.4-5.6,4
		C311.4,125.5,309.6,123,310.1,120.4"/>
	<path fill="#8E8D8D" d="M299.3,141.3c0.3-1.6,1.8-2.7,3.4-2.4c1.6,0.3,2.7,1.8,2.4,3.4c-0.3,1.6-1.8,2.7-3.4,2.4
		C300.1,144.4,299,142.9,299.3,141.3"/>
	<path fill="#CED7DB" d="M251.2,112.6c0.5-2.7,3-4.4,5.6-4c2.7,0.5,4.4,3,4,5.6c-0.5,2.7-3,4.4-5.6,4
		C252.6,117.8,250.8,115.3,251.2,112.6"/>
	<path fill="#8E8D8D" d="M265.6,95.5c0.3-1.6,1.8-2.7,3.4-2.4c1.6,0.3,2.7,1.8,2.4,3.4c-0.3,1.6-1.8,2.7-3.4,2.4
		C266.4,98.6,265.3,97.1,265.6,95.5"/>
	<path fill="#CED7DB" d="M285.5,97.3c-2.5-1.1-3.5-4-2.4-6.5c1.1-2.5,4-3.5,6.5-2.4c2.5,1.1,3.5,4,2.4,6.5
		C290.8,97.4,287.9,98.5,285.5,97.3"/>
	<path fill="#CED7DB" d="M277,150.8c-2.4-1.1-3.5-4-2.4-6.5c1.1-2.5,4-3.5,6.5-2.4c2.5,1.1,3.5,4,2.4,6.5
		C282.4,150.9,279.5,152,277,150.8"/>
	<path fill="#8E8D8D" d="M256.9,136.6c0.3-1.6,1.8-2.7,3.4-2.4c1.6,0.3,2.7,1.8,2.4,3.4c-0.3,1.6-1.8,2.7-3.4,2.4
		C257.7,139.7,256.6,138.2,256.9,136.6"/>
	<path fill="#8E8D8D" d="M306.1,100.3c0.3-1.6,1.8-2.7,3.4-2.4c1.6,0.3,2.7,1.8,2.4,3.4c-0.3,1.6-1.8,2.7-3.4,2.4
		C306.9,103.4,305.8,101.9,306.1,100.3"/>
</g>
<g>
	<line fill="none" stroke="#FFFFFF" stroke-width="2" stroke-miterlimit="10" x1="176.7" y1="358.3" x2="182.3" y2="385.9"/>
	<line fill="none" stroke="#FFFFFF" stroke-width="2" stroke-miterlimit="10" x1="170.6" y1="358.4" x2="158.5" y2="383.8"/>
	<line fill="none" stroke="#FFFFFF" stroke-width="2" stroke-miterlimit="10" x1="167.6" y1="355.2" x2="140.1" y2="361.5"/>
	<line fill="none" stroke="#FFFFFF" stroke-width="2" stroke-miterlimit="10" x1="208.5" y1="345.5" x2="181.1" y2="351.9"/>
	<line fill="none" stroke="#FFFFFF" stroke-width="2" stroke-miterlimit="10" x1="167.8" y1="319.5" x2="173.3" y2="348.7"/>
	<line fill="none" stroke="#FFFFFF" stroke-width="2" stroke-miterlimit="10" x1="191.8" y1="322.2" x2="179.8" y2="347.6"/>
	<line fill="none" stroke="#FFFFFF" stroke-width="2" stroke-miterlimit="10" x1="205.6" y1="370.3" x2="181.5" y2="355.9"/>
	<line fill="none" stroke="#FFFFFF" stroke-width="2" stroke-miterlimit="10" x1="169" y1="349.4" x2="144.9" y2="334.9"/>
	<path fill="#CED7DB" d="M197.3,355.1c0.4-2.3,2.6-3.8,4.9-3.4c2.3,0.4,3.8,2.6,3.4,4.9c-0.4,2.3-2.6,3.8-4.9,3.4
		C198.5,359.6,196.9,357.4,197.3,355.1"/>
	<path fill="#8E8D8D" d="M188,373.2c0.2-1.4,1.5-2.3,2.9-2.1c1.4,0.2,2.3,1.5,2.1,2.9c-0.2,1.4-1.5,2.3-2.9,2.1
		C188.7,375.9,187.7,374.6,188,373.2"/>
	<path fill="#CED7DB" d="M146.5,348.5c0.4-2.3,2.6-3.8,4.9-3.4c2.3,0.4,3.8,2.6,3.4,4.9c-0.4,2.3-2.6,3.8-4.9,3.4
		C147.7,353,146.1,350.8,146.5,348.5"/>
	<path fill="#8E8D8D" d="M158.9,333.7c0.2-1.4,1.5-2.3,2.9-2.1c1.4,0.2,2.3,1.5,2.1,2.9c-0.2,1.4-1.5,2.3-2.9,2.1
		C159.6,336.4,158.7,335.1,158.9,333.7"/>
	<path fill="#CED7DB" d="M176.1,335.3c-2.1-1-3-3.5-2.1-5.6c1-2.1,3.5-3,5.6-2.1c2.1,1,3,3.5,2.1,5.6
		C180.7,335.3,178.2,336.2,176.1,335.3"/>
	<path fill="#CED7DB" d="M168.8,381.5c-2.1-1-3-3.5-2.1-5.6c1-2.1,3.5-3,5.6-2.1c2.1,1,3,3.5,2.1,5.6
		C173.4,381.5,170.9,382.4,168.8,381.5"/>
	<path fill="#8E8D8D" d="M151.4,369.1c0.2-1.4,1.5-2.3,2.9-2.1c1.4,0.2,2.3,1.5,2.1,2.9c-0.2,1.4-1.5,2.3-2.9,2.1
		C152.1,371.8,151.1,370.5,151.4,369.1"/>
	<path fill="#8E8D8D" d="M193.9,337.8c0.2-1.4,1.5-2.3,2.9-2.1c1.4,0.2,2.3,1.5,2.1,2.9c-0.2,1.4-1.5,2.3-2.9,2.1
		C194.5,340.5,193.6,339.2,193.9,337.8"/>
</g>
</svg>
