<?xml version="1.0" encoding="utf-8"?>
<!-- Generator: Adobe Illustrator 18.0.0, SVG Export Plug-In . SVG Version: 6.00 Build 0)  -->
<!DOCTYPE svg PUBLIC "-//W3C//DTD SVG 1.1//EN" "http://www.w3.org/Graphics/SVG/1.1/DTD/svg11.dtd">
<svg version="1.1" id="圖層_1" xmlns="http://www.w3.org/2000/svg" xmlns:xlink="http://www.w3.org/1999/xlink" x="0px" y="0px"
	 viewBox="0 0 1279.2 588.8" enable-background="new 0 0 1279.2 588.8" xml:space="preserve">
<g>
	<rect x="-1.2" y="-0.7" fill="#12337C" width="1280.9" height="589.5"/>
	<polygon fill="#464849" points="-0.8,378.4 61.2,378.4 61.2,432.1 72.2,432.1 72.2,418 82.2,418 82.2,402.2 92.2,401.3 92.2,414.6 
		104.2,414.6 104.2,432.1 122.2,432.1 122.2,450.1 149.2,450.1 149.2,462.1 194.2,456.1 194.2,437.9 250.2,437.9 250.2,464.9 
		275,458.7 275,418 285.2,418 285.2,339.7 298.2,339.7 298.2,281.7 325.2,281.7 325.2,408.6 348,408.6 351.4,368.2 360.4,368.2 
		360.4,357.7 390.3,357.7 390.3,368.2 408.4,368.2 408.4,441.1 408.4,418.1 427.4,401.1 427.4,286.1 451.3,241.3 452.8,357.7 
		481.4,357.7 481.4,293.1 533.9,293.1 547.3,307.2 546.1,326.7 610.2,326.7 610.2,304.1 703.6,304 705.5,289.1 720.1,274.2 
		720.1,326.7 766.3,326.7 766.9,339.7 873.2,343 873.2,418 920.7,418 920.7,391 938.2,392 938.2,293.1 955.2,291.1 955.2,225.2 
		962.2,196.2 980.2,194.3 992.2,225.2 992.2,380.3 1019.2,381.1 1019.2,329.8 1028.2,329.8 1028.2,315.1 1071.2,314.1 1071.2,326.7 
		1086.2,326.7 1086.2,422.1 1104.2,422.1 1104.2,257 1133.2,240.2 1133.2,220.5 1146.2,202.9 1146.2,136.5 1151.2,133.7 
		1151.2,194.3 1161.2,182.4 1161.2,244.7 1170.2,246.9 1170.2,300.1 1185.2,300.1 1185.2,286.1 1213.2,287.1 1213.2,299.1 
		1260.2,298.1 1260.2,307.2 1271.2,307.2 1271.2,330.9 1279.2,329.8 1279.2,588.8 -1.2,590.6 	"/>
	<g>
		<rect x="1255.5" y="332.4" fill="#7A7E7F" width="5.9" height="144.4"/>
		<rect x="823" y="359.7" fill="#7A7E7F" width="33" height="4.9"/>
		<rect x="823" y="410.8" fill="#7A7E7F" width="33" height="4.9"/>
		<rect x="823" y="393.9" fill="#7A7E7F" width="33" height="4.9"/>
		<rect x="823" y="375.6" fill="#7A7E7F" width="33" height="4.9"/>
		<rect x="47.6" y="441.3" fill="#7A7E7F" width="7.9" height="7.2"/>
		<rect x="47.5" y="389.9" fill="#7A7E7F" width="7.9" height="7.2"/>
		<rect x="47.6" y="423.9" fill="#7A7E7F" width="7.9" height="7.2"/>
		<rect x="47.5" y="405.1" fill="#7A7E7F" width="7.9" height="7.2"/>
		<rect x="389.5" y="383.1" fill="#7A7E7F" width="7.9" height="7.2"/>
		<rect x="389.6" y="417" fill="#7A7E7F" width="7.9" height="7.2"/>
		<rect x="389.5" y="398.3" fill="#7A7E7F" width="7.9" height="7.2"/>
		<rect x="363.7" y="433.5" fill="#7A7E7F" width="7.9" height="7.2"/>
		<rect x="363.7" y="382.2" fill="#7A7E7F" width="7.9" height="7.2"/>
		<rect x="363.7" y="416.1" fill="#7A7E7F" width="7.9" height="7.2"/>
		<rect x="363.7" y="397.4" fill="#7A7E7F" width="7.9" height="7.2"/>
		<rect x="1065.6" y="388.3" fill="#7A7E7F" width="7.9" height="7.2"/>
		<rect x="1065.5" y="336.9" fill="#7A7E7F" width="7.9" height="7.2"/>
		<rect x="1065.6" y="370.9" fill="#7A7E7F" width="7.9" height="7.2"/>
		<rect x="1065.5" y="352.1" fill="#7A7E7F" width="7.9" height="7.2"/>
		<rect x="1041.6" y="387.1" fill="#7A7E7F" width="7.9" height="7.2"/>
		<rect x="1041.5" y="335.8" fill="#7A7E7F" width="7.9" height="7.2"/>
		<rect x="1041.5" y="351" fill="#7A7E7F" width="7.9" height="7.2"/>
		<rect x="1065.6" y="460.1" fill="#7A7E7F" width="7.9" height="7.2"/>
		<rect x="1065.5" y="408.7" fill="#7A7E7F" width="7.9" height="7.2"/>
		<rect x="1065.6" y="442.7" fill="#7A7E7F" width="7.9" height="7.2"/>
		<rect x="1065.5" y="423.9" fill="#7A7E7F" width="7.9" height="7.2"/>
		<rect x="1041.6" y="460.1" fill="#7A7E7F" width="7.9" height="7.2"/>
		<rect x="1041.5" y="408.7" fill="#7A7E7F" width="7.9" height="7.2"/>
		<rect x="1041.6" y="442.7" fill="#7A7E7F" width="7.9" height="7.2"/>
		<rect x="1041.5" y="423.9" fill="#7A7E7F" width="7.9" height="7.2"/>
		<rect x="977.5" y="388.4" fill="#7A7E7F" width="7.9" height="7.2"/>
		<rect x="977.4" y="337.1" fill="#7A7E7F" width="7.9" height="7.2"/>
		<rect x="977.5" y="371" fill="#7A7E7F" width="7.9" height="7.2"/>
		<rect x="977.4" y="352.2" fill="#7A7E7F" width="7.9" height="7.2"/>
		<rect x="977.4" y="408.9" fill="#7A7E7F" width="7.9" height="7.2"/>
		<rect x="977.4" y="440.8" fill="#7A7E7F" width="7.9" height="7.2"/>
		<rect x="977.4" y="424.1" fill="#7A7E7F" width="7.9" height="7.2"/>
		<rect x="1132.5" y="258.5" fill="#7A7E7F" width="33" height="4.9"/>
		<rect x="236.5" y="446.1" fill="#7A7E7F" width="7.9" height="31.1"/>
		<rect x="314.5" y="292.7" fill="#7A7E7F" width="5.9" height="144.4"/>
		<rect x="1132.5" y="326.5" fill="#7A7E7F" width="33" height="4.9"/>
		<rect x="1132.5" y="309.5" fill="#7A7E7F" width="33" height="4.9"/>
		<rect x="1132.5" y="292.7" fill="#7A7E7F" width="33" height="4.9"/>
		<rect x="1132.5" y="274.4" fill="#7A7E7F" width="33" height="4.9"/>
		<rect x="1132.5" y="342.7" fill="#7A7E7F" width="33" height="4.9"/>
		<rect x="1132.5" y="410.7" fill="#7A7E7F" width="33" height="4.9"/>
		<rect x="1132.5" y="393.7" fill="#7A7E7F" width="33" height="4.9"/>
		<rect x="1132.5" y="376.9" fill="#7A7E7F" width="33" height="4.9"/>
		<rect x="1132.5" y="358.6" fill="#7A7E7F" width="33" height="4.9"/>
		<rect x="497.4" y="308.2" fill="#7A7E7F" width="33" height="4.9"/>
		<rect x="497.4" y="324.1" fill="#7A7E7F" width="33" height="4.9"/>
		<rect x="1215.4" y="318.8" fill="#7A7E7F" width="7.9" height="7.2"/>
		<rect x="1215.5" y="352.7" fill="#7A7E7F" width="7.9" height="7.2"/>
		<rect x="1215.4" y="334" fill="#7A7E7F" width="7.9" height="7.2"/>
		<rect x="1189.6" y="369.2" fill="#7A7E7F" width="7.9" height="7.2"/>
		<rect x="1189.6" y="317.9" fill="#7A7E7F" width="7.9" height="7.2"/>
		<rect x="1189.6" y="351.8" fill="#7A7E7F" width="7.9" height="7.2"/>
		<rect x="1189.6" y="333.1" fill="#7A7E7F" width="7.9" height="7.2"/>
		<rect x="1215.5" y="445.8" fill="#7A7E7F" width="7.9" height="7.2"/>
		<rect x="1215.4" y="394.5" fill="#7A7E7F" width="7.9" height="7.2"/>
		<rect x="1215.5" y="428.5" fill="#7A7E7F" width="7.9" height="7.2"/>
		<rect x="1215.4" y="409.7" fill="#7A7E7F" width="7.9" height="7.2"/>
		<rect x="1189.6" y="444.9" fill="#7A7E7F" width="7.9" height="7.2"/>
		<rect x="1189.6" y="393.6" fill="#7A7E7F" width="7.9" height="7.2"/>
		<rect x="1189.6" y="427.5" fill="#7A7E7F" width="7.9" height="7.2"/>
		<rect x="1189.6" y="408.8" fill="#7A7E7F" width="7.9" height="7.2"/>
		<rect x="102.4" y="448.3" fill="#7A7E7F" width="7.9" height="7.2"/>
		<rect x="102.4" y="463.5" fill="#7A7E7F" width="7.9" height="7.2"/>
		<rect x="76.6" y="447.4" fill="#7A7E7F" width="7.9" height="7.2"/>
		<rect x="76.6" y="462.6" fill="#7A7E7F" width="7.9" height="7.2"/>
		<rect x="655.2" y="316.4" fill="#7A7E7F" width="7.9" height="7.2"/>
		<rect x="655.2" y="331.6" fill="#7A7E7F" width="7.9" height="7.2"/>
		<rect x="629.4" y="315.4" fill="#7A7E7F" width="7.9" height="7.2"/>
		<rect x="629.4" y="330.6" fill="#7A7E7F" width="7.9" height="7.2"/>
		<rect x="706.7" y="316.4" fill="#7A7E7F" width="7.9" height="7.2"/>
		<rect x="706.7" y="331.6" fill="#7A7E7F" width="7.9" height="7.2"/>
		<rect x="680.8" y="315.4" fill="#7A7E7F" width="7.9" height="7.2"/>
		<rect x="680.8" y="330.6" fill="#7A7E7F" width="7.9" height="7.2"/>
		<rect x="951.5" y="304.7" fill="#7A7E7F" width="5.9" height="91.7"/>
		<rect x="436.9" y="293" fill="#7A7E7F" width="5.9" height="82.7"/>
		<rect x="496.6" y="358.8" fill="#7A7E7F" width="33" height="4.9"/>
		<rect x="497.4" y="341.7" fill="#7A7E7F" width="33" height="4.9"/>
		<rect x="1215.4" y="369.2" fill="#7A7E7F" width="7.9" height="7.2"/>
	</g>
	<g>
		<line fill="#F2F2F2" x1="1" y1="13" x2="1281" y2="13"/>
		<g>
			<g>
				<g>
					<g>
						<g>
							<rect x="1" y="-10" fill="none" width="40" height="45"/>
						</g>
						<rect x="30.6" y="10.9" fill-rule="evenodd" clip-rule="evenodd" fill="#F3F3F3" width="7.4" height="4.5"/>
						<rect x="17.3" y="10.9" fill-rule="evenodd" clip-rule="evenodd" fill="#F3F3F3" width="7.4" height="4.5"/>
						<rect x="4" y="10.9" fill-rule="evenodd" clip-rule="evenodd" fill="#F3F3F3" width="7.4" height="4.5"/>
					</g>
				</g>
				<g>
					<g>
						<g>
							<rect x="41" y="-10" fill="none" width="40" height="45"/>
						</g>
						<rect x="70.6" y="10.9" fill-rule="evenodd" clip-rule="evenodd" fill="#F3F3F3" width="7.4" height="4.5"/>
						<rect x="57.3" y="10.9" fill-rule="evenodd" clip-rule="evenodd" fill="#F3F3F3" width="7.4" height="4.5"/>
						<rect x="44" y="10.9" fill-rule="evenodd" clip-rule="evenodd" fill="#F3F3F3" width="7.4" height="4.5"/>
					</g>
				</g>
				<g>
					<g>
						<g>
							<rect x="81" y="-10" fill="none" width="40" height="45"/>
						</g>
						<rect x="110.6" y="10.9" fill-rule="evenodd" clip-rule="evenodd" fill="#F3F3F3" width="7.4" height="4.5"/>
						<rect x="97.3" y="10.9" fill-rule="evenodd" clip-rule="evenodd" fill="#F3F3F3" width="7.4" height="4.5"/>
						<rect x="84" y="10.9" fill-rule="evenodd" clip-rule="evenodd" fill="#F3F3F3" width="7.4" height="4.5"/>
					</g>
				</g>
				<g>
					<g>
						<g>
							<rect x="121" y="-10" fill="none" width="40" height="45"/>
						</g>
						<rect x="150.6" y="10.9" fill-rule="evenodd" clip-rule="evenodd" fill="#F3F3F3" width="7.4" height="4.5"/>
						<rect x="137.3" y="10.9" fill-rule="evenodd" clip-rule="evenodd" fill="#F3F3F3" width="7.4" height="4.5"/>
						<rect x="124" y="10.9" fill-rule="evenodd" clip-rule="evenodd" fill="#F3F3F3" width="7.4" height="4.5"/>
					</g>
				</g>
				<g>
					<g>
						<g>
							<rect x="161" y="-10" fill="none" width="40" height="45"/>
						</g>
						<rect x="190.6" y="10.9" fill-rule="evenodd" clip-rule="evenodd" fill="#F3F3F3" width="7.4" height="4.5"/>
						<rect x="177.3" y="10.9" fill-rule="evenodd" clip-rule="evenodd" fill="#F3F3F3" width="7.4" height="4.5"/>
						<rect x="164" y="10.9" fill-rule="evenodd" clip-rule="evenodd" fill="#F3F3F3" width="7.4" height="4.5"/>
					</g>
				</g>
				<g>
					<g>
						<g>
							<rect x="201" y="-10" fill="none" width="40" height="45"/>
						</g>
						<rect x="230.6" y="10.9" fill-rule="evenodd" clip-rule="evenodd" fill="#F3F3F3" width="7.4" height="4.5"/>
						<rect x="217.3" y="10.9" fill-rule="evenodd" clip-rule="evenodd" fill="#F3F3F3" width="7.4" height="4.5"/>
						<rect x="204" y="10.9" fill-rule="evenodd" clip-rule="evenodd" fill="#F3F3F3" width="7.4" height="4.5"/>
					</g>
				</g>
				<g>
					<g>
						<g>
							<rect x="241" y="-10" fill="none" width="40" height="45"/>
						</g>
						<rect x="270.6" y="10.9" fill-rule="evenodd" clip-rule="evenodd" fill="#F3F3F3" width="7.4" height="4.5"/>
						<rect x="257.3" y="10.9" fill-rule="evenodd" clip-rule="evenodd" fill="#F3F3F3" width="7.4" height="4.5"/>
						<rect x="244" y="10.9" fill-rule="evenodd" clip-rule="evenodd" fill="#F3F3F3" width="7.4" height="4.5"/>
					</g>
				</g>
				<g>
					<g>
						<g>
							<rect x="281" y="-10" fill="none" width="40" height="45"/>
						</g>
						<rect x="310.6" y="10.9" fill-rule="evenodd" clip-rule="evenodd" fill="#F3F3F3" width="7.4" height="4.5"/>
						<rect x="297.3" y="10.9" fill-rule="evenodd" clip-rule="evenodd" fill="#F3F3F3" width="7.4" height="4.5"/>
						<rect x="284" y="10.9" fill-rule="evenodd" clip-rule="evenodd" fill="#F3F3F3" width="7.4" height="4.5"/>
					</g>
				</g>
				<g>
					<g>
						<g>
							<rect x="321" y="-10" fill="none" width="40" height="45"/>
						</g>
						<rect x="350.6" y="10.9" fill-rule="evenodd" clip-rule="evenodd" fill="#F3F3F3" width="7.4" height="4.5"/>
						<rect x="337.3" y="10.9" fill-rule="evenodd" clip-rule="evenodd" fill="#F3F3F3" width="7.4" height="4.5"/>
						<rect x="324" y="10.9" fill-rule="evenodd" clip-rule="evenodd" fill="#F3F3F3" width="7.4" height="4.5"/>
					</g>
				</g>
				<g>
					<g>
						<g>
							<rect x="361" y="-10" fill="none" width="40" height="45"/>
						</g>
						<rect x="390.6" y="10.9" fill-rule="evenodd" clip-rule="evenodd" fill="#F3F3F3" width="7.4" height="4.5"/>
						<rect x="377.3" y="10.9" fill-rule="evenodd" clip-rule="evenodd" fill="#F3F3F3" width="7.4" height="4.5"/>
						<rect x="364" y="10.9" fill-rule="evenodd" clip-rule="evenodd" fill="#F3F3F3" width="7.4" height="4.5"/>
					</g>
				</g>
				<g>
					<g>
						<g>
							<rect x="401" y="-10" fill="none" width="40" height="45"/>
						</g>
						<rect x="430.6" y="10.9" fill-rule="evenodd" clip-rule="evenodd" fill="#F3F3F3" width="7.4" height="4.5"/>
						<rect x="417.3" y="10.9" fill-rule="evenodd" clip-rule="evenodd" fill="#F3F3F3" width="7.4" height="4.5"/>
						<rect x="404" y="10.9" fill-rule="evenodd" clip-rule="evenodd" fill="#F3F3F3" width="7.4" height="4.5"/>
					</g>
				</g>
				<g>
					<g>
						<g>
							<rect x="441" y="-10" fill="none" width="40" height="45"/>
						</g>
						<rect x="470.6" y="10.9" fill-rule="evenodd" clip-rule="evenodd" fill="#F3F3F3" width="7.4" height="4.5"/>
						<rect x="457.3" y="10.9" fill-rule="evenodd" clip-rule="evenodd" fill="#F3F3F3" width="7.4" height="4.5"/>
						<rect x="444" y="10.9" fill-rule="evenodd" clip-rule="evenodd" fill="#F3F3F3" width="7.4" height="4.5"/>
					</g>
				</g>
				<g>
					<g>
						<g>
							<rect x="481" y="-10" fill="none" width="40" height="45"/>
						</g>
						<rect x="510.6" y="10.9" fill-rule="evenodd" clip-rule="evenodd" fill="#F3F3F3" width="7.4" height="4.5"/>
						<rect x="497.3" y="10.9" fill-rule="evenodd" clip-rule="evenodd" fill="#F3F3F3" width="7.4" height="4.5"/>
						<rect x="484" y="10.9" fill-rule="evenodd" clip-rule="evenodd" fill="#F3F3F3" width="7.4" height="4.5"/>
					</g>
				</g>
				<g>
					<g>
						<g>
							<rect x="521" y="-10" fill="none" width="40" height="45"/>
						</g>
						<rect x="550.6" y="10.9" fill-rule="evenodd" clip-rule="evenodd" fill="#F3F3F3" width="7.4" height="4.5"/>
						<rect x="537.3" y="10.9" fill-rule="evenodd" clip-rule="evenodd" fill="#F3F3F3" width="7.4" height="4.5"/>
						<rect x="524" y="10.9" fill-rule="evenodd" clip-rule="evenodd" fill="#F3F3F3" width="7.4" height="4.5"/>
					</g>
				</g>
				<g>
					<g>
						<g>
							<rect x="561" y="-10" fill="none" width="40" height="45"/>
						</g>
						<rect x="590.6" y="10.9" fill-rule="evenodd" clip-rule="evenodd" fill="#F3F3F3" width="7.4" height="4.5"/>
						<rect x="577.3" y="10.9" fill-rule="evenodd" clip-rule="evenodd" fill="#F3F3F3" width="7.4" height="4.5"/>
						<rect x="564" y="10.9" fill-rule="evenodd" clip-rule="evenodd" fill="#F3F3F3" width="7.4" height="4.5"/>
					</g>
				</g>
				<g>
					<g>
						<g>
							<rect x="601" y="-10" fill="none" width="40" height="45"/>
						</g>
						<rect x="630.6" y="10.9" fill-rule="evenodd" clip-rule="evenodd" fill="#F3F3F3" width="7.4" height="4.5"/>
						<rect x="617.3" y="10.9" fill-rule="evenodd" clip-rule="evenodd" fill="#F3F3F3" width="7.4" height="4.5"/>
						<rect x="604" y="10.9" fill-rule="evenodd" clip-rule="evenodd" fill="#F3F3F3" width="7.4" height="4.5"/>
					</g>
				</g>
				<g>
					<g>
						<g>
							<rect x="641" y="-10" fill="none" width="40" height="45"/>
						</g>
						<rect x="670.6" y="10.9" fill-rule="evenodd" clip-rule="evenodd" fill="#F3F3F3" width="7.4" height="4.5"/>
						<rect x="657.3" y="10.9" fill-rule="evenodd" clip-rule="evenodd" fill="#F3F3F3" width="7.4" height="4.5"/>
						<rect x="644" y="10.9" fill-rule="evenodd" clip-rule="evenodd" fill="#F3F3F3" width="7.4" height="4.5"/>
					</g>
				</g>
				<g>
					<g>
						<g>
							<rect x="681" y="-10" fill="none" width="40" height="45"/>
						</g>
						<rect x="710.6" y="10.9" fill-rule="evenodd" clip-rule="evenodd" fill="#F3F3F3" width="7.4" height="4.5"/>
						<rect x="697.3" y="10.9" fill-rule="evenodd" clip-rule="evenodd" fill="#F3F3F3" width="7.4" height="4.5"/>
						<rect x="684" y="10.9" fill-rule="evenodd" clip-rule="evenodd" fill="#F3F3F3" width="7.4" height="4.5"/>
					</g>
				</g>
				<g>
					<g>
						<g>
							<rect x="721" y="-10" fill="none" width="40" height="45"/>
						</g>
						<rect x="750.6" y="10.9" fill-rule="evenodd" clip-rule="evenodd" fill="#F3F3F3" width="7.4" height="4.5"/>
						<rect x="737.3" y="10.9" fill-rule="evenodd" clip-rule="evenodd" fill="#F3F3F3" width="7.4" height="4.5"/>
						<rect x="724" y="10.9" fill-rule="evenodd" clip-rule="evenodd" fill="#F3F3F3" width="7.4" height="4.5"/>
					</g>
				</g>
				<g>
					<g>
						<g>
							<rect x="761" y="-10" fill="none" width="40" height="45"/>
						</g>
						<rect x="790.6" y="10.9" fill-rule="evenodd" clip-rule="evenodd" fill="#F3F3F3" width="7.4" height="4.5"/>
						<rect x="777.3" y="10.9" fill-rule="evenodd" clip-rule="evenodd" fill="#F3F3F3" width="7.4" height="4.5"/>
						<rect x="764" y="10.9" fill-rule="evenodd" clip-rule="evenodd" fill="#F3F3F3" width="7.4" height="4.5"/>
					</g>
				</g>
				<g>
					<g>
						<g>
							<rect x="801" y="-10" fill="none" width="40" height="45"/>
						</g>
						<rect x="830.6" y="10.9" fill-rule="evenodd" clip-rule="evenodd" fill="#F3F3F3" width="7.4" height="4.5"/>
						<rect x="817.3" y="10.9" fill-rule="evenodd" clip-rule="evenodd" fill="#F3F3F3" width="7.4" height="4.5"/>
						<rect x="804" y="10.9" fill-rule="evenodd" clip-rule="evenodd" fill="#F3F3F3" width="7.4" height="4.5"/>
					</g>
				</g>
				<g>
					<g>
						<g>
							<rect x="841" y="-10" fill="none" width="40" height="45"/>
						</g>
						<rect x="870.6" y="10.9" fill-rule="evenodd" clip-rule="evenodd" fill="#F3F3F3" width="7.4" height="4.5"/>
						<rect x="857.3" y="10.9" fill-rule="evenodd" clip-rule="evenodd" fill="#F3F3F3" width="7.4" height="4.5"/>
						<rect x="844" y="10.9" fill-rule="evenodd" clip-rule="evenodd" fill="#F3F3F3" width="7.4" height="4.5"/>
					</g>
				</g>
				<g>
					<g>
						<g>
							<rect x="881" y="-10" fill="none" width="40" height="45"/>
						</g>
						<rect x="910.6" y="10.9" fill-rule="evenodd" clip-rule="evenodd" fill="#F3F3F3" width="7.4" height="4.5"/>
						<rect x="897.3" y="10.9" fill-rule="evenodd" clip-rule="evenodd" fill="#F3F3F3" width="7.4" height="4.5"/>
						<rect x="884" y="10.9" fill-rule="evenodd" clip-rule="evenodd" fill="#F3F3F3" width="7.4" height="4.5"/>
					</g>
				</g>
				<g>
					<g>
						<g>
							<rect x="921" y="-10" fill="none" width="40" height="45"/>
						</g>
						<rect x="950.6" y="10.9" fill-rule="evenodd" clip-rule="evenodd" fill="#F3F3F3" width="7.4" height="4.5"/>
						<rect x="937.3" y="10.9" fill-rule="evenodd" clip-rule="evenodd" fill="#F3F3F3" width="7.4" height="4.5"/>
						<rect x="924" y="10.9" fill-rule="evenodd" clip-rule="evenodd" fill="#F3F3F3" width="7.4" height="4.5"/>
					</g>
				</g>
				<g>
					<g>
						<g>
							<rect x="961" y="-10" fill="none" width="40" height="45"/>
						</g>
						<rect x="990.6" y="10.9" fill-rule="evenodd" clip-rule="evenodd" fill="#F3F3F3" width="7.4" height="4.5"/>
						<rect x="977.3" y="10.9" fill-rule="evenodd" clip-rule="evenodd" fill="#F3F3F3" width="7.4" height="4.5"/>
						<rect x="964" y="10.9" fill-rule="evenodd" clip-rule="evenodd" fill="#F3F3F3" width="7.4" height="4.5"/>
					</g>
				</g>
				<g>
					<g>
						<g>
							<rect x="1001" y="-10" fill="none" width="40" height="45"/>
						</g>
						<rect x="1030.6" y="10.9" fill-rule="evenodd" clip-rule="evenodd" fill="#F3F3F3" width="7.4" height="4.5"/>
						<rect x="1017.3" y="10.9" fill-rule="evenodd" clip-rule="evenodd" fill="#F3F3F3" width="7.4" height="4.5"/>
						<rect x="1004" y="10.9" fill-rule="evenodd" clip-rule="evenodd" fill="#F3F3F3" width="7.4" height="4.5"/>
					</g>
				</g>
				<g>
					<g>
						<g>
							<rect x="1041" y="-10" fill="none" width="40" height="45"/>
						</g>
						<rect x="1070.6" y="10.9" fill-rule="evenodd" clip-rule="evenodd" fill="#F3F3F3" width="7.4" height="4.5"/>
						<rect x="1057.3" y="10.9" fill-rule="evenodd" clip-rule="evenodd" fill="#F3F3F3" width="7.4" height="4.5"/>
						<rect x="1044" y="10.9" fill-rule="evenodd" clip-rule="evenodd" fill="#F3F3F3" width="7.4" height="4.5"/>
					</g>
				</g>
				<g>
					<g>
						<g>
							<rect x="1081" y="-10" fill="none" width="40" height="45"/>
						</g>
						<rect x="1110.6" y="10.9" fill-rule="evenodd" clip-rule="evenodd" fill="#F3F3F3" width="7.4" height="4.5"/>
						<rect x="1097.3" y="10.9" fill-rule="evenodd" clip-rule="evenodd" fill="#F3F3F3" width="7.4" height="4.5"/>
						<rect x="1084" y="10.9" fill-rule="evenodd" clip-rule="evenodd" fill="#F3F3F3" width="7.4" height="4.5"/>
					</g>
				</g>
				<g>
					<g>
						<g>
							<rect x="1121" y="-10" fill="none" width="40" height="45"/>
						</g>
						<rect x="1150.6" y="10.9" fill-rule="evenodd" clip-rule="evenodd" fill="#F3F3F3" width="7.4" height="4.5"/>
						<rect x="1137.3" y="10.9" fill-rule="evenodd" clip-rule="evenodd" fill="#F3F3F3" width="7.4" height="4.5"/>
						<rect x="1124" y="10.9" fill-rule="evenodd" clip-rule="evenodd" fill="#F3F3F3" width="7.4" height="4.5"/>
					</g>
				</g>
				<g>
					<g>
						<g>
							<rect x="1161" y="-10" fill="none" width="40" height="45"/>
						</g>
						<rect x="1190.6" y="10.9" fill-rule="evenodd" clip-rule="evenodd" fill="#F3F3F3" width="7.4" height="4.5"/>
						<rect x="1177.3" y="10.9" fill-rule="evenodd" clip-rule="evenodd" fill="#F3F3F3" width="7.4" height="4.5"/>
						<rect x="1164" y="10.9" fill-rule="evenodd" clip-rule="evenodd" fill="#F3F3F3" width="7.4" height="4.5"/>
					</g>
				</g>
				<g>
					<g>
						<g>
							<rect x="1201" y="-10" fill="none" width="40" height="45"/>
						</g>
						<rect x="1230.6" y="10.9" fill-rule="evenodd" clip-rule="evenodd" fill="#F3F3F3" width="7.4" height="4.5"/>
						<rect x="1217.3" y="10.9" fill-rule="evenodd" clip-rule="evenodd" fill="#F3F3F3" width="7.4" height="4.5"/>
						<rect x="1204" y="10.9" fill-rule="evenodd" clip-rule="evenodd" fill="#F3F3F3" width="7.4" height="4.5"/>
					</g>
				</g>
				<g>
					<g>
						<g>
							<rect x="1241" y="-10" fill="none" width="40" height="45"/>
						</g>
						<rect x="1270.6" y="10.9" fill-rule="evenodd" clip-rule="evenodd" fill="#F3F3F3" width="7.4" height="4.5"/>
						<rect x="1257.3" y="10.9" fill-rule="evenodd" clip-rule="evenodd" fill="#F3F3F3" width="7.4" height="4.5"/>
						<rect x="1244" y="10.9" fill-rule="evenodd" clip-rule="evenodd" fill="#F3F3F3" width="7.4" height="4.5"/>
					</g>
				</g>
			</g>
		</g>
	</g>
	<g>
		<line fill="#F2F2F2" x1="0" y1="568" x2="1280" y2="568"/>
		<g>
			<g>
				<g>
					<g>
						<g>
							<rect y="545" fill="none" width="40" height="45"/>
						</g>
						<rect x="29.6" y="565.9" fill-rule="evenodd" clip-rule="evenodd" fill="#F3F3F3" width="7.4" height="4.5"/>
						<rect x="16.3" y="565.9" fill-rule="evenodd" clip-rule="evenodd" fill="#F3F3F3" width="7.4" height="4.5"/>
						<rect x="3" y="565.9" fill-rule="evenodd" clip-rule="evenodd" fill="#F3F3F3" width="7.4" height="4.5"/>
					</g>
				</g>
				<g>
					<g>
						<g>
							<rect x="40" y="545" fill="none" width="40" height="45"/>
						</g>
						<rect x="69.6" y="565.9" fill-rule="evenodd" clip-rule="evenodd" fill="#F3F3F3" width="7.4" height="4.5"/>
						<rect x="56.3" y="565.9" fill-rule="evenodd" clip-rule="evenodd" fill="#F3F3F3" width="7.4" height="4.5"/>
						<rect x="43" y="565.9" fill-rule="evenodd" clip-rule="evenodd" fill="#F3F3F3" width="7.4" height="4.5"/>
					</g>
				</g>
				<g>
					<g>
						<g>
							<rect x="80" y="545" fill="none" width="40" height="45"/>
						</g>
						<rect x="109.6" y="565.9" fill-rule="evenodd" clip-rule="evenodd" fill="#F3F3F3" width="7.4" height="4.5"/>
						<rect x="96.3" y="565.9" fill-rule="evenodd" clip-rule="evenodd" fill="#F3F3F3" width="7.4" height="4.5"/>
						<rect x="83" y="565.9" fill-rule="evenodd" clip-rule="evenodd" fill="#F3F3F3" width="7.4" height="4.5"/>
					</g>
				</g>
				<g>
					<g>
						<g>
							<rect x="120" y="545" fill="none" width="40" height="45"/>
						</g>
						<rect x="149.6" y="565.9" fill-rule="evenodd" clip-rule="evenodd" fill="#F3F3F3" width="7.4" height="4.5"/>
						<rect x="136.3" y="565.9" fill-rule="evenodd" clip-rule="evenodd" fill="#F3F3F3" width="7.4" height="4.5"/>
						<rect x="123" y="565.9" fill-rule="evenodd" clip-rule="evenodd" fill="#F3F3F3" width="7.4" height="4.5"/>
					</g>
				</g>
				<g>
					<g>
						<g>
							<rect x="160" y="545" fill="none" width="40" height="45"/>
						</g>
						<rect x="189.6" y="565.9" fill-rule="evenodd" clip-rule="evenodd" fill="#F3F3F3" width="7.4" height="4.5"/>
						<rect x="176.3" y="565.9" fill-rule="evenodd" clip-rule="evenodd" fill="#F3F3F3" width="7.4" height="4.5"/>
						<rect x="163" y="565.9" fill-rule="evenodd" clip-rule="evenodd" fill="#F3F3F3" width="7.4" height="4.5"/>
					</g>
				</g>
				<g>
					<g>
						<g>
							<rect x="200" y="545" fill="none" width="40" height="45"/>
						</g>
						<rect x="229.6" y="565.9" fill-rule="evenodd" clip-rule="evenodd" fill="#F3F3F3" width="7.4" height="4.5"/>
						<rect x="216.3" y="565.9" fill-rule="evenodd" clip-rule="evenodd" fill="#F3F3F3" width="7.4" height="4.5"/>
						<rect x="203" y="565.9" fill-rule="evenodd" clip-rule="evenodd" fill="#F3F3F3" width="7.4" height="4.5"/>
					</g>
				</g>
				<g>
					<g>
						<g>
							<rect x="240" y="545" fill="none" width="40" height="45"/>
						</g>
						<rect x="269.6" y="565.9" fill-rule="evenodd" clip-rule="evenodd" fill="#F3F3F3" width="7.4" height="4.5"/>
						<rect x="256.3" y="565.9" fill-rule="evenodd" clip-rule="evenodd" fill="#F3F3F3" width="7.4" height="4.5"/>
						<rect x="243" y="565.9" fill-rule="evenodd" clip-rule="evenodd" fill="#F3F3F3" width="7.4" height="4.5"/>
					</g>
				</g>
				<g>
					<g>
						<g>
							<rect x="280" y="545" fill="none" width="40" height="45"/>
						</g>
						<rect x="309.6" y="565.9" fill-rule="evenodd" clip-rule="evenodd" fill="#F3F3F3" width="7.4" height="4.5"/>
						<rect x="296.3" y="565.9" fill-rule="evenodd" clip-rule="evenodd" fill="#F3F3F3" width="7.4" height="4.5"/>
						<rect x="283" y="565.9" fill-rule="evenodd" clip-rule="evenodd" fill="#F3F3F3" width="7.4" height="4.5"/>
					</g>
				</g>
				<g>
					<g>
						<g>
							<rect x="320" y="545" fill="none" width="40" height="45"/>
						</g>
						<rect x="349.6" y="565.9" fill-rule="evenodd" clip-rule="evenodd" fill="#F3F3F3" width="7.4" height="4.5"/>
						<rect x="336.3" y="565.9" fill-rule="evenodd" clip-rule="evenodd" fill="#F3F3F3" width="7.4" height="4.5"/>
						<rect x="323" y="565.9" fill-rule="evenodd" clip-rule="evenodd" fill="#F3F3F3" width="7.4" height="4.5"/>
					</g>
				</g>
				<g>
					<g>
						<g>
							<rect x="360" y="545" fill="none" width="40" height="45"/>
						</g>
						<rect x="389.6" y="565.9" fill-rule="evenodd" clip-rule="evenodd" fill="#F3F3F3" width="7.4" height="4.5"/>
						<rect x="376.3" y="565.9" fill-rule="evenodd" clip-rule="evenodd" fill="#F3F3F3" width="7.4" height="4.5"/>
						<rect x="363" y="565.9" fill-rule="evenodd" clip-rule="evenodd" fill="#F3F3F3" width="7.4" height="4.5"/>
					</g>
				</g>
				<g>
					<g>
						<g>
							<rect x="400" y="545" fill="none" width="40" height="45"/>
						</g>
						<rect x="429.6" y="565.9" fill-rule="evenodd" clip-rule="evenodd" fill="#F3F3F3" width="7.4" height="4.5"/>
						<rect x="416.3" y="565.9" fill-rule="evenodd" clip-rule="evenodd" fill="#F3F3F3" width="7.4" height="4.5"/>
						<rect x="403" y="565.9" fill-rule="evenodd" clip-rule="evenodd" fill="#F3F3F3" width="7.4" height="4.5"/>
					</g>
				</g>
				<g>
					<g>
						<g>
							<rect x="440" y="545" fill="none" width="40" height="45"/>
						</g>
						<rect x="469.6" y="565.9" fill-rule="evenodd" clip-rule="evenodd" fill="#F3F3F3" width="7.4" height="4.5"/>
						<rect x="456.3" y="565.9" fill-rule="evenodd" clip-rule="evenodd" fill="#F3F3F3" width="7.4" height="4.5"/>
						<rect x="443" y="565.9" fill-rule="evenodd" clip-rule="evenodd" fill="#F3F3F3" width="7.4" height="4.5"/>
					</g>
				</g>
				<g>
					<g>
						<g>
							<rect x="480" y="545" fill="none" width="40" height="45"/>
						</g>
						<rect x="509.6" y="565.9" fill-rule="evenodd" clip-rule="evenodd" fill="#F3F3F3" width="7.4" height="4.5"/>
						<rect x="496.3" y="565.9" fill-rule="evenodd" clip-rule="evenodd" fill="#F3F3F3" width="7.4" height="4.5"/>
						<rect x="483" y="565.9" fill-rule="evenodd" clip-rule="evenodd" fill="#F3F3F3" width="7.4" height="4.5"/>
					</g>
				</g>
				<g>
					<g>
						<g>
							<rect x="520" y="545" fill="none" width="40" height="45"/>
						</g>
						<rect x="549.6" y="565.9" fill-rule="evenodd" clip-rule="evenodd" fill="#F3F3F3" width="7.4" height="4.5"/>
						<rect x="536.3" y="565.9" fill-rule="evenodd" clip-rule="evenodd" fill="#F3F3F3" width="7.4" height="4.5"/>
						<rect x="523" y="565.9" fill-rule="evenodd" clip-rule="evenodd" fill="#F3F3F3" width="7.4" height="4.5"/>
					</g>
				</g>
				<g>
					<g>
						<g>
							<rect x="560" y="545" fill="none" width="40" height="45"/>
						</g>
						<rect x="589.6" y="565.9" fill-rule="evenodd" clip-rule="evenodd" fill="#F3F3F3" width="7.4" height="4.5"/>
						<rect x="576.3" y="565.9" fill-rule="evenodd" clip-rule="evenodd" fill="#F3F3F3" width="7.4" height="4.5"/>
						<rect x="563" y="565.9" fill-rule="evenodd" clip-rule="evenodd" fill="#F3F3F3" width="7.4" height="4.5"/>
					</g>
				</g>
				<g>
					<g>
						<g>
							<rect x="600" y="545" fill="none" width="40" height="45"/>
						</g>
						<rect x="629.6" y="565.9" fill-rule="evenodd" clip-rule="evenodd" fill="#F3F3F3" width="7.4" height="4.5"/>
						<rect x="616.3" y="565.9" fill-rule="evenodd" clip-rule="evenodd" fill="#F3F3F3" width="7.4" height="4.5"/>
						<rect x="603" y="565.9" fill-rule="evenodd" clip-rule="evenodd" fill="#F3F3F3" width="7.4" height="4.5"/>
					</g>
				</g>
				<g>
					<g>
						<g>
							<rect x="640" y="545" fill="none" width="40" height="45"/>
						</g>
						<rect x="669.6" y="565.9" fill-rule="evenodd" clip-rule="evenodd" fill="#F3F3F3" width="7.4" height="4.5"/>
						<rect x="656.3" y="565.9" fill-rule="evenodd" clip-rule="evenodd" fill="#F3F3F3" width="7.4" height="4.5"/>
						<rect x="643" y="565.9" fill-rule="evenodd" clip-rule="evenodd" fill="#F3F3F3" width="7.4" height="4.5"/>
					</g>
				</g>
				<g>
					<g>
						<g>
							<rect x="680" y="545" fill="none" width="40" height="45"/>
						</g>
						<rect x="709.6" y="565.9" fill-rule="evenodd" clip-rule="evenodd" fill="#F3F3F3" width="7.4" height="4.5"/>
						<rect x="696.3" y="565.9" fill-rule="evenodd" clip-rule="evenodd" fill="#F3F3F3" width="7.4" height="4.5"/>
						<rect x="683" y="565.9" fill-rule="evenodd" clip-rule="evenodd" fill="#F3F3F3" width="7.4" height="4.5"/>
					</g>
				</g>
				<g>
					<g>
						<g>
							<rect x="720" y="545" fill="none" width="40" height="45"/>
						</g>
						<rect x="749.6" y="565.9" fill-rule="evenodd" clip-rule="evenodd" fill="#F3F3F3" width="7.4" height="4.5"/>
						<rect x="736.3" y="565.9" fill-rule="evenodd" clip-rule="evenodd" fill="#F3F3F3" width="7.4" height="4.5"/>
						<rect x="723" y="565.9" fill-rule="evenodd" clip-rule="evenodd" fill="#F3F3F3" width="7.4" height="4.5"/>
					</g>
				</g>
				<g>
					<g>
						<g>
							<rect x="760" y="545" fill="none" width="40" height="45"/>
						</g>
						<rect x="789.6" y="565.9" fill-rule="evenodd" clip-rule="evenodd" fill="#F3F3F3" width="7.4" height="4.5"/>
						<rect x="776.3" y="565.9" fill-rule="evenodd" clip-rule="evenodd" fill="#F3F3F3" width="7.4" height="4.5"/>
						<rect x="763" y="565.9" fill-rule="evenodd" clip-rule="evenodd" fill="#F3F3F3" width="7.4" height="4.5"/>
					</g>
				</g>
				<g>
					<g>
						<g>
							<rect x="800" y="545" fill="none" width="40" height="45"/>
						</g>
						<rect x="829.6" y="565.9" fill-rule="evenodd" clip-rule="evenodd" fill="#F3F3F3" width="7.4" height="4.5"/>
						<rect x="816.3" y="565.9" fill-rule="evenodd" clip-rule="evenodd" fill="#F3F3F3" width="7.4" height="4.5"/>
						<rect x="803" y="565.9" fill-rule="evenodd" clip-rule="evenodd" fill="#F3F3F3" width="7.4" height="4.5"/>
					</g>
				</g>
				<g>
					<g>
						<g>
							<rect x="840" y="545" fill="none" width="40" height="45"/>
						</g>
						<rect x="869.6" y="565.9" fill-rule="evenodd" clip-rule="evenodd" fill="#F3F3F3" width="7.4" height="4.5"/>
						<rect x="856.3" y="565.9" fill-rule="evenodd" clip-rule="evenodd" fill="#F3F3F3" width="7.4" height="4.5"/>
						<rect x="843" y="565.9" fill-rule="evenodd" clip-rule="evenodd" fill="#F3F3F3" width="7.4" height="4.5"/>
					</g>
				</g>
				<g>
					<g>
						<g>
							<rect x="880" y="545" fill="none" width="40" height="45"/>
						</g>
						<rect x="909.6" y="565.9" fill-rule="evenodd" clip-rule="evenodd" fill="#F3F3F3" width="7.4" height="4.5"/>
						<rect x="896.3" y="565.9" fill-rule="evenodd" clip-rule="evenodd" fill="#F3F3F3" width="7.4" height="4.5"/>
						<rect x="883" y="565.9" fill-rule="evenodd" clip-rule="evenodd" fill="#F3F3F3" width="7.4" height="4.5"/>
					</g>
				</g>
				<g>
					<g>
						<g>
							<rect x="920" y="545" fill="none" width="40" height="45"/>
						</g>
						<rect x="949.6" y="565.9" fill-rule="evenodd" clip-rule="evenodd" fill="#F3F3F3" width="7.4" height="4.5"/>
						<rect x="936.3" y="565.9" fill-rule="evenodd" clip-rule="evenodd" fill="#F3F3F3" width="7.4" height="4.5"/>
						<rect x="923" y="565.9" fill-rule="evenodd" clip-rule="evenodd" fill="#F3F3F3" width="7.4" height="4.5"/>
					</g>
				</g>
				<g>
					<g>
						<g>
							<rect x="960" y="545" fill="none" width="40" height="45"/>
						</g>
						<rect x="989.6" y="565.9" fill-rule="evenodd" clip-rule="evenodd" fill="#F3F3F3" width="7.4" height="4.5"/>
						<rect x="976.3" y="565.9" fill-rule="evenodd" clip-rule="evenodd" fill="#F3F3F3" width="7.4" height="4.5"/>
						<rect x="963" y="565.9" fill-rule="evenodd" clip-rule="evenodd" fill="#F3F3F3" width="7.4" height="4.5"/>
					</g>
				</g>
				<g>
					<g>
						<g>
							<rect x="1000" y="545" fill="none" width="40" height="45"/>
						</g>
						<rect x="1029.6" y="565.9" fill-rule="evenodd" clip-rule="evenodd" fill="#F3F3F3" width="7.4" height="4.5"/>
						<rect x="1016.3" y="565.9" fill-rule="evenodd" clip-rule="evenodd" fill="#F3F3F3" width="7.4" height="4.5"/>
						<rect x="1003" y="565.9" fill-rule="evenodd" clip-rule="evenodd" fill="#F3F3F3" width="7.4" height="4.5"/>
					</g>
				</g>
				<g>
					<g>
						<g>
							<rect x="1040" y="545" fill="none" width="40" height="45"/>
						</g>
						<rect x="1069.6" y="565.9" fill-rule="evenodd" clip-rule="evenodd" fill="#F3F3F3" width="7.4" height="4.5"/>
						<rect x="1056.3" y="565.9" fill-rule="evenodd" clip-rule="evenodd" fill="#F3F3F3" width="7.4" height="4.5"/>
						<rect x="1043" y="565.9" fill-rule="evenodd" clip-rule="evenodd" fill="#F3F3F3" width="7.4" height="4.5"/>
					</g>
				</g>
				<g>
					<g>
						<g>
							<rect x="1080" y="545" fill="none" width="40" height="45"/>
						</g>
						<rect x="1109.6" y="565.9" fill-rule="evenodd" clip-rule="evenodd" fill="#F3F3F3" width="7.4" height="4.5"/>
						<rect x="1096.3" y="565.9" fill-rule="evenodd" clip-rule="evenodd" fill="#F3F3F3" width="7.4" height="4.5"/>
						<rect x="1083" y="565.9" fill-rule="evenodd" clip-rule="evenodd" fill="#F3F3F3" width="7.4" height="4.5"/>
					</g>
				</g>
				<g>
					<g>
						<g>
							<rect x="1120" y="545" fill="none" width="40" height="45"/>
						</g>
						<rect x="1149.6" y="565.9" fill-rule="evenodd" clip-rule="evenodd" fill="#F3F3F3" width="7.4" height="4.5"/>
						<rect x="1136.3" y="565.9" fill-rule="evenodd" clip-rule="evenodd" fill="#F3F3F3" width="7.4" height="4.5"/>
						<rect x="1123" y="565.9" fill-rule="evenodd" clip-rule="evenodd" fill="#F3F3F3" width="7.4" height="4.5"/>
					</g>
				</g>
				<g>
					<g>
						<g>
							<rect x="1160" y="545" fill="none" width="40" height="45"/>
						</g>
						<rect x="1189.6" y="565.9" fill-rule="evenodd" clip-rule="evenodd" fill="#F3F3F3" width="7.4" height="4.5"/>
						<rect x="1176.3" y="565.9" fill-rule="evenodd" clip-rule="evenodd" fill="#F3F3F3" width="7.4" height="4.5"/>
						<rect x="1163" y="565.9" fill-rule="evenodd" clip-rule="evenodd" fill="#F3F3F3" width="7.4" height="4.5"/>
					</g>
				</g>
				<g>
					<g>
						<g>
							<rect x="1200" y="545" fill="none" width="40" height="45"/>
						</g>
						<rect x="1229.6" y="565.9" fill-rule="evenodd" clip-rule="evenodd" fill="#F3F3F3" width="7.4" height="4.5"/>
						<rect x="1216.3" y="565.9" fill-rule="evenodd" clip-rule="evenodd" fill="#F3F3F3" width="7.4" height="4.5"/>
						<rect x="1203" y="565.9" fill-rule="evenodd" clip-rule="evenodd" fill="#F3F3F3" width="7.4" height="4.5"/>
					</g>
				</g>
				<g>
					<g>
						<g>
							<rect x="1240" y="545" fill="none" width="40" height="45"/>
						</g>
						<rect x="1269.6" y="565.9" fill-rule="evenodd" clip-rule="evenodd" fill="#F3F3F3" width="7.4" height="4.5"/>
						<rect x="1256.3" y="565.9" fill-rule="evenodd" clip-rule="evenodd" fill="#F3F3F3" width="7.4" height="4.5"/>
						<rect x="1243" y="565.9" fill-rule="evenodd" clip-rule="evenodd" fill="#F3F3F3" width="7.4" height="4.5"/>
					</g>
				</g>
			</g>
		</g>
	</g>
	<path fill="#FFFFFF" d="M151.7,502.6c0,0,2.9-5.7-2.3-8.8c0,0-51-2.1-49.3,9.1c0,0-1.5,6.3,7.1,5.5L151.7,502.6z"/>
	<path fill="#FFFFFF" d="M174.7,485.6c0,0-9.1,1.8-3.8,5l5.2-2.5C176.1,488.1,177.4,484.8,174.7,485.6z"/>
	<path fill="#FFFFFF" d="M192.5,477.5v10.2C192.5,487.7,198.3,483.3,192.5,477.5z"/>
	<circle fill="#FFFFFF" cx="106.5" cy="543.7" r="16.7"/>
	<circle fill="#464849" cx="105.7" cy="543.9" r="12.7"/>
	<path fill="#FFFFFF" d="M176.4,484.6c0,0,1.9,0.5,1.5,3.4h2.2c0,0,9.3,31.9,0,42.6c0,0-14.9,18.1-38.1,4.2c0,0-13.9-10.5,8.9-26.8
		c0,0,1.8-1.4,0.6-3.2l-48.2,5.6c0,0-22.2,13.9-18.6,26.2c0,0,17.5,7.9,43,6.1c0,0,35.7,20.8,59.5-8.3c0,0-4,11.5,0,9.5
		c0,0,13.3-22.8,33.1-7.5c0,0,3.6,4.4,1.8-3.4c0,0-6.1-15-24.6-8.1c0,0-1.6-18.2-11.3-35.1c0,0-0.8-4.8,4.4-2.8l-0.2-9.7
		c0,0-3.2-2-6.7,4.4L176.4,484.6z"/>
	<circle fill="#FFFFFF" cx="205.1" cy="543.9" r="16.7"/>
	<circle fill="#464849" cx="205.1" cy="543.7" r="12.7"/>
	<circle fill="#FFFFFF" cx="205.1" cy="544.2" r="8.6"/>
	<circle fill="#FFFFFF" cx="106.2" cy="544.2" r="8.6"/>
	<path fill="none" stroke="#464849" stroke-width="3" stroke-miterlimit="10" d="M95.2,523.3c1.7-2.5,3.8-4.7,6.4-6.4
		c6-3.9,13.2-6,20.3-4.7c0,0,11.7,1.3,13.1,13.6c0,0,1.2,13.3-7.5,12.9c0,0-40.9,3.2-35.9-8.7C92.6,527.7,93.7,525.4,95.2,523.3z"/>
</g>
</svg>
